<?xml version="1.0" encoding="utf-8"?>
<!-- Generator: Adobe Illustrator 27.5.0, SVG Export Plug-In . SVG Version: 6.00 Build 0)  -->
<svg version="1.1" xmlns="http://www.w3.org/2000/svg" xmlns:xlink="http://www.w3.org/1999/xlink" x="0px" y="0px"
	 viewBox="0 0 500 500" style="enable-background:new 0 0 500 500;" xml:space="preserve">
<g id="BACKGROUND_2">
</g>
<g id="BACKGROUND_1">
	<rect style="fill:#FFFFFF;" width="500" height="500"/>
	<g>
		<path style="fill:#FFD552;" d="M167.707,128.76c-6.246-5.06-34.871-30.782-34.871-30.782s31.228,22.51,37.473,27.571
			c6.246,5.06,11.272,9.012,9.847,10.771C178.729,138.078,173.952,133.821,167.707,128.76z"/>
		<path style="fill:#FFD552;" d="M85.073,128.76c6.245-5.06,34.872-30.782,34.872-30.782s-31.229,22.51-37.474,27.571
			c-6.245,5.06-11.272,9.012-9.846,10.771C74.051,138.078,78.828,133.821,85.073,128.76z"/>
		<path style="fill:#FFD552;" d="M124.13,148.77c0.05-8.038,2.253-46.46,2.253-46.46s1.931,38.448,1.879,46.485
			c-0.05,8.038,0.005,14.431-2.259,14.417C123.741,163.197,124.081,156.806,124.13,148.77z"/>
		<path style="fill:#FFD552;" d="M167.707,58.54c-6.246,5.06-34.871,30.782-34.871,30.782s31.228-22.51,37.473-27.571
			c6.246-5.06,11.272-9.011,9.847-10.771C178.729,49.222,173.952,53.479,167.707,58.54z"/>
		<path style="fill:#FFD552;" d="M85.073,58.54c6.245,5.06,34.872,30.782,34.872,30.782s-31.229-22.51-37.474-27.571
			c-6.245-5.06-11.272-9.011-9.846-10.771C74.051,49.222,78.828,53.479,85.073,58.54z"/>
		<path style="fill:#FFD552;" d="M124.13,40.209c0.05,8.039,2.253,46.46,2.253,46.46s1.931-38.448,1.879-46.485
			c-0.05-8.038,0.005-14.432-2.259-14.417C123.741,25.782,124.081,32.173,124.13,40.209z"/>
		<path style="fill:#FFD552;" d="M178.093,95.957c-8.038-0.05-46.46-2.253-46.46-2.253s38.448-1.93,46.485-1.88
			c8.038,0.051,14.431-0.004,14.418,2.26C192.52,96.348,186.129,96.007,178.093,95.957z"/>
		<path style="fill:#FFD552;" d="M72.745,95.957c8.038-0.05,46.459-2.253,46.459-2.253s-38.447-1.93-46.484-1.88
			c-8.038,0.051-14.432-0.004-14.417,2.26C58.316,96.348,64.708,96.007,72.745,95.957z"/>
		<path style="fill:#10BEC4;" d="M80.581,147.579c3.333-3.722,20.176-20.699,20.176-20.699s-14.93,18.691-18.262,22.411
			c-3.333,3.721-5.939,6.719-6.987,5.781C74.46,154.133,77.249,151.299,80.581,147.579z"/>
		<path style="fill:#10BEC4;" d="M110.877,159.814c1.17-4.857,7.946-27.792,7.946-27.792s-4.279,23.537-5.448,28.392
			c-1.169,4.855-2.043,8.733-3.41,8.402C108.597,168.487,109.709,164.669,110.877,159.814z"/>
		<path style="fill:#10BEC4;" d="M172.302,147.579c-3.334-3.722-20.177-20.699-20.177-20.699s14.93,18.691,18.262,22.411
			c3.333,3.721,5.939,6.719,6.987,5.781C178.424,154.133,175.634,151.299,172.302,147.579z"/>
		<path style="fill:#10BEC4;" d="M142.006,159.814c-1.169-4.857-7.947-27.792-7.947-27.792s4.28,23.537,5.449,28.392
			c1.169,4.855,2.043,8.733,3.41,8.402C144.287,168.487,143.175,164.669,142.006,159.814z"/>
		<path style="fill:#10BEC4;" d="M80.581,41.502c3.333,3.721,20.176,20.699,20.176,20.699s-14.93-18.692-18.262-22.412
			c-3.333-3.72-5.939-6.719-6.987-5.78C74.46,34.947,77.249,37.78,80.581,41.502z"/>
		<path style="fill:#10BEC4;" d="M110.877,29.267c1.17,4.857,7.946,27.792,7.946,27.792s-4.279-23.537-5.448-28.392
			c-1.169-4.856-2.043-8.732-3.41-8.403C108.597,20.592,109.709,24.411,110.877,29.267z"/>
		<path style="fill:#10BEC4;" d="M172.302,41.502c-3.334,3.721-20.177,20.699-20.177,20.699s14.93-18.692,18.262-22.412
			c3.333-3.72,5.939-6.719,6.987-5.78C178.424,34.947,175.634,37.78,172.302,41.502z"/>
		<path style="fill:#FFD552;" d="M104.258,145.795c3.499-7.236,18.463-42.693,18.463-42.693s-18.686,33.658-22.184,40.894
			c-3.499,7.236-6.367,12.95-4.329,13.936C98.247,158.917,100.759,153.031,104.258,145.795z"/>
		<path style="fill:#FFD552;" d="M148.416,145.795c-3.499-7.236-18.462-42.693-18.462-42.693s18.686,33.658,22.184,40.894
			c3.499,7.236,6.367,12.95,4.329,13.936C154.427,158.917,151.915,153.031,148.416,145.795z"/>
		<path style="fill:#FFD552;" d="M104.258,43.137c3.499,7.236,18.463,42.693,18.463,42.693s-18.686-33.658-22.184-40.894
			C97.038,37.701,94.17,31.986,96.208,31C98.247,30.016,100.759,35.901,104.258,43.137z"/>
		<path style="fill:#FFD552;" d="M148.416,43.137c-3.499,7.236-18.462,42.693-18.462,42.693s18.686-33.658,22.184-40.894
			c3.499-7.236,6.367-12.951,4.329-13.937C154.427,30.016,151.915,35.901,148.416,43.137z"/>
		<path style="fill:#10BEC4;" d="M142.006,29.267c-1.169,4.857-7.947,27.792-7.947,27.792s4.28-23.537,5.449-28.392
			c1.169-4.856,2.043-8.732,3.41-8.403C144.287,20.592,143.175,24.411,142.006,29.267z"/>
		<path style="fill:#10BEC4;" d="M187.146,118.429c-4.564-2.032-26.879-10.631-26.879-10.631s21.271,10.946,25.834,12.978
			c4.563,2.031,8.168,3.7,8.741,2.415C195.415,121.906,191.708,120.461,187.146,118.429z"/>
		<path style="fill:#10BEC4;" d="M63.905,118.429c4.563-2.032,26.878-10.631,26.878-10.631s-21.271,10.946-25.834,12.978
			c-4.563,2.031-8.168,3.7-8.74,2.415C55.636,121.906,59.342,120.461,63.905,118.429z"/>
		<path style="fill:#10BEC4;" d="M63.905,70.189c4.563,2.031,26.878,10.631,26.878,10.631S69.513,69.873,64.95,67.843
			c-4.563-2.032-8.168-3.701-8.74-2.415C55.636,66.713,59.342,68.157,63.905,70.189z"/>
		<path style="fill:#10BEC4;" d="M187.146,70.189c-4.564,2.031-26.879,10.631-26.879,10.631s21.271-10.947,25.834-12.978
			c4.563-2.032,8.168-3.701,8.741-2.415C195.415,66.713,191.708,68.157,187.146,70.189z"/>
		<path style="opacity:0.5;fill:#53D9D9;" d="M162.857,94.442c0,20.26-16.423,36.683-36.684,36.683
			c-20.259,0-36.683-16.423-36.683-36.683c0-20.26,16.423-36.684,36.683-36.684C146.434,57.758,162.857,74.182,162.857,94.442z"/>
	</g>
	<g>
		<polygon style="fill:#FF4A2C;" points="249.965,36.373 228.774,34.419 230.727,55.611 232.679,34.419 211.489,36.373 
			232.679,38.326 230.727,17.135 228.775,38.326 		"/>
	</g>
	<g>
		<polygon style="fill:#FFD552;" points="188.791,442.953 164.247,444.267 162.936,468.81 161.623,444.266 137.08,442.953 
			161.623,441.641 162.936,417.097 164.247,441.641 		"/>
	</g>
	<g>
		<polygon style="fill:#FFD552;" points="43.586,18.669 35.167,19.679 34.157,28.098 33.146,19.679 24.727,18.669 33.146,17.657 
			34.157,9.238 35.167,17.657 		"/>
	</g>
	<g>
		<text transform="matrix(1 0 0 1 97.7793 261.8799)" style="fill:#541137; font-family:'Lobster-Regular'; font-size:58.9807px;">Let’s Celebrate</text>
	</g>
	<g>
		<polygon style="fill:#541137;" points="88.358,223.819 79.939,224.83 78.929,233.249 77.918,224.83 69.498,223.819 
			77.918,222.808 78.929,214.389 79.939,222.807 		"/>
	</g>
	<g>
		<polygon style="fill:#541137;" points="124.453,196.953 101.615,198.976 99.594,221.814 97.572,198.975 74.734,196.953 
			97.572,194.93 99.594,172.092 101.615,194.929 		"/>
	</g>
	<g>
		<polygon style="fill:#541137;" points="442.278,236.876 433.861,237.888 442.278,238.897 443.291,247.315 444.302,238.898 
			452.721,237.888 444.303,236.876 443.29,228.456 		"/>
	</g>
	<g>
		<polygon style="fill:#541137;" points="421.909,206.901 399.07,208.92 421.906,210.942 423.93,233.781 425.951,210.944 
			448.789,208.92 425.951,206.899 423.928,184.063 		"/>
	</g>
	<g>
		<path style="fill:#10BEC4;" d="M425.508,148.406c-6.163-4.993-34.403-30.37-34.403-30.37s30.81,22.209,36.969,27.201
			c6.163,4.991,11.122,8.89,9.715,10.626C436.383,157.598,431.669,153.398,425.508,148.406z"/>
		<path style="fill:#10BEC4;" d="M343.983,148.406c6.161-4.993,34.403-30.37,34.403-30.37s-30.811,22.209-36.971,27.201
			c-6.16,4.991-11.12,8.89-9.713,10.626C333.108,157.598,337.822,153.398,343.983,148.406z"/>
		<path style="fill:#10BEC4;" d="M382.515,168.145c0.05-7.93,2.226-45.836,2.226-45.836s1.902,37.932,1.853,45.861
			c-0.048,7.93,0.006,14.238-2.23,14.224C382.131,182.38,382.467,176.075,382.515,168.145z"/>
		<path style="fill:#10BEC4;" d="M425.508,79.128c-6.163,4.992-34.403,30.37-34.403,30.37s30.81-22.209,36.969-27.201
			c6.163-4.993,11.122-8.891,9.715-10.626C436.383,69.936,431.669,74.136,425.508,79.128z"/>
		<path style="fill:#10BEC4;" d="M343.983,79.128c6.161,4.992,34.403,30.37,34.403,30.37s-30.811-22.209-36.971-27.201
			c-6.16-4.993-11.12-8.891-9.713-10.626C333.108,69.936,337.822,74.136,343.983,79.128z"/>
		<path style="fill:#10BEC4;" d="M382.515,61.044c0.05,7.93,2.226,45.837,2.226,45.837s1.902-37.933,1.853-45.861
			c-0.048-7.93,0.006-14.238-2.23-14.224C382.131,46.811,382.467,53.116,382.515,61.044z"/>
		<path style="fill:#10BEC4;" d="M437.711,116.044c-7.931-0.049-45.837-2.223-45.837-2.223s37.931-1.904,45.862-1.854
			c7.93,0.049,14.236-0.004,14.221,2.229C451.943,116.429,445.639,116.093,437.711,116.044z"/>
		<path style="fill:#10BEC4;" d="M330.842,116.044c7.931-0.049,45.836-2.223,45.836-2.223s-37.932-1.904-45.859-1.854
			c-7.932,0.049-14.238-0.004-14.225,2.229C316.607,116.429,322.912,116.093,330.842,116.044z"/>
		<path style="fill:#FF4A2C;" d="M348.67,157.676c2.774-3.099,16.8-17.234,16.8-17.234s-12.43,15.563-15.204,18.66
			c-2.776,3.099-4.946,5.595-5.819,4.814C343.574,163.134,345.897,160.774,348.67,157.676z"/>
		<path style="fill:#FF4A2C;" d="M373.07,168.689c0.974-4.044,6.616-23.14,6.616-23.14s-3.564,19.597-4.539,23.64
			c-0.971,4.043-1.698,7.271-2.837,6.997C371.17,175.911,372.099,172.732,373.07,168.689z"/>
		<path style="fill:#FF4A2C;" d="M423.389,157.676c-2.776-3.099-16.8-17.234-16.8-17.234s12.43,15.563,15.204,18.66
			c2.776,3.099,4.945,5.595,5.819,4.814C428.486,163.134,426.163,160.774,423.389,157.676z"/>
		<path style="fill:#FF4A2C;" d="M398.988,168.689c-0.974-4.044-6.616-23.14-6.616-23.14s3.563,19.597,4.536,23.64
			c0.974,4.043,1.701,7.271,2.84,6.997C400.889,175.911,399.961,172.732,398.988,168.689z"/>
		<path style="fill:#FF4A2C;" d="M348.67,71.006c2.774,3.099,16.8,17.234,16.8,17.234s-12.43-15.563-15.204-18.659
			c-2.776-3.098-4.946-5.595-5.819-4.813C343.574,65.549,345.897,67.908,348.67,71.006z"/>
		<path style="fill:#FF4A2C;" d="M373.07,59.994c0.974,4.043,6.616,23.14,6.616,23.14s-3.564-19.597-4.539-23.64
			c-0.971-4.044-1.698-7.271-2.837-6.997C371.17,52.771,372.099,55.95,373.07,59.994z"/>
		<path style="fill:#FF4A2C;" d="M423.389,71.006c-2.776,3.099-16.8,17.234-16.8,17.234s12.43-15.563,15.204-18.659
			c2.776-3.098,4.945-5.595,5.819-4.813C428.486,65.549,426.163,67.908,423.389,71.006z"/>
		<path style="fill:#10BEC4;" d="M362.908,165.212c3.454-7.138,18.217-42.12,18.217-42.12s-18.436,33.206-21.886,40.345
			c-3.454,7.139-6.282,12.777-4.271,13.749C356.979,178.158,359.458,172.351,362.908,165.212z"/>
		<path style="fill:#10BEC4;" d="M406.476,165.212c-3.454-7.138-18.215-42.12-18.215-42.12s18.436,33.206,21.886,40.345
			c3.452,7.139,6.28,12.777,4.271,13.749C412.406,178.158,409.928,172.351,406.476,165.212z"/>
		<path style="fill:#10BEC4;" d="M362.908,63.932c3.454,7.139,18.217,42.121,18.217,42.121s-18.436-33.206-21.886-40.345
			c-3.454-7.139-6.282-12.777-4.271-13.75C356.979,50.986,359.458,56.793,362.908,63.932z"/>
		<path style="fill:#10BEC4;" d="M406.476,63.932c-3.454,7.139-18.215,42.121-18.215,42.121s18.436-33.206,21.886-40.345
			c3.452-7.139,6.28-12.777,4.271-13.75C412.406,50.986,409.928,56.793,406.476,63.932z"/>
		<path style="fill:#FF4A2C;" d="M398.988,59.994c-0.974,4.043-6.616,23.14-6.616,23.14s3.563-19.597,4.536-23.64
			c0.974-4.044,1.701-7.271,2.84-6.997C400.889,52.771,399.961,55.95,398.988,59.994z"/>
		<path style="fill:#FF4A2C;" d="M436.57,133.406c-3.797-1.691-22.379-8.851-22.379-8.851s17.712,9.113,21.512,10.806
			c3.798,1.691,6.8,3.08,7.276,2.01C443.458,136.3,440.372,135.099,436.57,133.406z"/>
		<path style="fill:#FF4A2C;" d="M334.785,133.406c3.802-1.691,22.381-8.851,22.381-8.851s-17.712,9.113-21.512,10.806
			c-3.799,1.691-6.8,3.08-7.276,2.01C327.902,136.3,330.985,135.099,334.785,133.406z"/>
		<path style="fill:#FF4A2C;" d="M333.961,94.066c3.798,1.691,22.379,8.851,22.379,8.851s-17.711-9.115-21.511-10.805
			c-3.798-1.69-6.803-3.081-7.276-2.011C327.074,91.171,330.16,92.374,333.961,94.066z"/>
		<path style="fill:#FF4A2C;" d="M436.57,94.066c-3.797,1.691-22.379,8.851-22.379,8.851s17.712-9.115,21.512-10.805
			c3.798-1.69,6.8-3.081,7.276-2.011C443.458,91.171,440.372,92.374,436.57,94.066z"/>
		<g>
			<polygon style="fill:#FF4A2C;" points="393.592,114.529 387.617,115.408 392.158,119.388 386.809,116.585 388.144,122.476 
				385.465,117.062 383.079,122.612 384.094,116.659 378.903,119.748 383.221,115.525 377.209,114.971 383.184,114.094 
				378.644,110.112 383.995,112.916 382.659,107.026 385.337,112.44 387.722,106.89 386.704,112.843 391.896,109.755 
				387.579,113.978 			"/>
		</g>
		
			<ellipse transform="matrix(0.0621 -0.9981 0.9981 0.0621 246.9504 492.287)" style="opacity:0.4;fill:#FF4A2C;" cx="385.4" cy="114.752" rx="37.473" ry="37.472"/>
	</g>
	<g>
		<g>
			<g>
				<path style="fill:#10BEC4;" d="M347.011,398.863c0,0,0.23,4.235,0.494,10.589c0.142,3.178,0.311,6.883,0.434,10.855
					c0.135,3.971,0.28,8.206,0.425,12.441c0.088,2.117,0.176,4.237,0.265,6.322c0.105,2.085,0.185,4.138,0.201,6.12
					c-0.004,1.985-0.038,3.905-0.144,5.726c-0.046,0.91-0.093,1.795-0.137,2.651c-0.065,0.856-0.127,1.684-0.186,2.479
					c-0.117,1.588-0.277,3.045-0.417,4.334c-0.147,1.292-0.294,2.417-0.436,3.343c-0.273,1.854-0.5,2.912-0.5,2.912h-0.384
					c0,0-0.227-1.058-0.499-2.912c-0.142-0.926-0.288-2.051-0.436-3.343c-0.141-1.289-0.3-2.746-0.417-4.334
					c-0.06-0.795-0.121-1.622-0.186-2.479c-0.044-0.856-0.09-1.741-0.138-2.651c-0.104-1.82-0.139-3.74-0.143-5.726
					c0.016-1.982,0.097-4.035,0.202-6.12c0.088-2.085,0.177-4.205,0.265-6.322c0.145-4.235,0.29-8.471,0.427-12.441
					c0.118-3.973,0.289-7.678,0.432-10.855c0.261-6.353,0.493-10.589,0.493-10.589H347.011z"/>
				<path style="fill:#10BEC4;" d="M339.408,397.155c0,0-1.248,4.055-3.193,10.11c-0.965,3.027-2.087,6.566-3.344,10.335
					c-1.244,3.772-2.571,7.799-3.897,11.823c-0.649,2.018-1.298,4.035-1.936,6.022c-0.62,1.995-1.254,3.945-1.926,5.815
					c-0.689,1.862-1.384,3.651-2.11,5.324c-0.358,0.835-0.706,1.653-1.044,2.44c-0.356,0.781-0.699,1.535-1.031,2.262
					c-0.658,1.449-1.31,2.763-1.888,3.924c-0.585,1.16-1.109,2.164-1.563,2.985c-0.897,1.646-1.475,2.561-1.475,2.561l-0.36-0.133
					c0,0,0.153-1.073,0.535-2.906c0.188-0.918,0.441-2.023,0.747-3.285c0.314-1.262,0.668-2.683,1.105-4.213
					c0.219-0.766,0.445-1.565,0.682-2.39c0.256-0.818,0.519-1.665,0.787-2.536c0.53-1.745,1.162-3.556,1.842-5.422
					c0.702-1.858,1.485-3.758,2.306-5.676c0.801-1.928,1.616-3.884,2.431-5.843c1.598-3.924,3.196-7.849,4.696-11.527
					c1.484-3.685,2.924-7.105,4.152-10.037c2.44-5.873,4.12-9.768,4.12-9.768L339.408,397.155z"/>
				<path style="fill:#10BEC4;" d="M353.627,397.022c0,0,1.681,3.896,4.122,9.768c1.228,2.932,2.667,6.352,4.153,10.037
					c1.497,3.679,3.097,7.604,4.696,11.527c0.813,1.959,1.628,3.915,2.429,5.843c0.821,1.918,1.605,3.817,2.306,5.676
					c0.682,1.866,1.313,3.677,1.841,5.422c0.271,0.871,0.534,1.718,0.787,2.536c0.236,0.825,0.463,1.624,0.682,2.39
					c0.439,1.53,0.793,2.951,1.108,4.213c0.303,1.262,0.557,2.367,0.745,3.285c0.384,1.833,0.535,2.906,0.535,2.906l-0.36,0.133
					c0,0-0.578-0.916-1.475-2.561c-0.451-0.821-0.978-1.825-1.564-2.985c-0.576-1.161-1.228-2.475-1.887-3.924
					c-0.33-0.727-0.674-1.48-1.031-2.262c-0.336-0.787-0.685-1.605-1.045-2.44c-0.726-1.673-1.42-3.462-2.109-5.324
					c-0.672-1.87-1.306-3.82-1.926-5.815c-0.638-1.987-1.284-4.005-1.936-6.022c-1.326-4.024-2.653-8.051-3.896-11.823
					c-1.26-3.769-2.379-7.308-3.345-10.335c-1.946-6.056-3.192-10.11-3.192-10.11L353.627,397.022z"/>
				<path style="fill:#10BEC4;" d="M360.688,391.777c-0.002,0,3.291,2.672,8.176,6.742c2.449,2.032,5.311,4.394,8.334,6.97
					c3.034,2.567,6.269,5.303,9.506,8.041c1.628,1.357,3.256,2.713,4.859,4.049c1.616,1.321,3.19,2.64,4.671,3.961
					c1.469,1.336,2.871,2.65,4.146,3.951c0.646,0.645,1.268,1.275,1.874,1.882c0.593,0.622,1.163,1.223,1.712,1.803
					c1.097,1.154,2.07,2.246,2.935,3.218c0.853,0.979,1.589,1.841,2.183,2.567c1.188,1.447,1.822,2.324,1.824,2.324l-0.262,0.286
					c0.002,0-0.935-0.545-2.492-1.586c-0.781-0.516-1.712-1.165-2.771-1.922c-1.048-0.762-2.234-1.622-3.49-2.602
					c-0.63-0.489-1.284-0.998-1.96-1.526c-0.664-0.541-1.352-1.101-2.059-1.678c-1.419-1.145-2.862-2.409-4.337-3.738
					c-1.461-1.346-2.93-2.781-4.4-4.262c-1.486-1.465-2.997-2.951-4.508-4.441c-3.041-2.95-6.083-5.901-8.934-8.668
					c-2.861-2.757-5.493-5.372-7.753-7.609c-4.531-4.462-7.515-7.476-7.515-7.476L360.688,391.777z"/>
				<path style="fill:#10BEC4;" d="M332.762,392.064c0,0-2.984,3.014-7.513,7.476c-2.262,2.237-4.895,4.853-7.755,7.609
					c-2.852,2.767-5.892,5.718-8.934,8.668c-1.511,1.49-3.02,2.977-4.508,4.441c-1.471,1.48-2.939,2.916-4.4,4.262
					c-1.475,1.329-2.919,2.594-4.338,3.738c-0.706,0.576-1.392,1.137-2.056,1.678c-0.678,0.528-1.333,1.037-1.963,1.526
					c-1.255,0.979-2.44,1.84-3.49,2.602c-1.058,0.757-1.989,1.406-2.771,1.922c-1.557,1.041-2.494,1.586-2.492,1.586l-0.259-0.286
					c0,0,0.634-0.877,1.822-2.324c0.593-0.727,1.328-1.588,2.185-2.567c0.862-0.972,1.836-2.063,2.932-3.218
					c0.551-0.58,1.121-1.181,1.713-1.803c0.605-0.606,1.229-1.236,1.874-1.882c1.274-1.302,2.676-2.615,4.145-3.951
					c1.482-1.321,3.055-2.64,4.672-3.961c1.602-1.336,3.23-2.691,4.861-4.049c3.234-2.738,6.47-5.474,9.503-8.041
					c3.026-2.576,5.885-4.938,8.335-6.97c4.884-4.07,8.177-6.742,8.177-6.742L332.762,392.064z"/>
				<path style="fill:#10BEC4;" d="M360.428,377.472c0,0,2.983-3.015,7.515-7.477c2.26-2.238,4.892-4.853,7.753-7.608
					c2.851-2.768,5.893-5.72,8.934-8.671c1.511-1.487,3.022-2.976,4.508-4.438c1.471-1.48,2.94-2.916,4.4-4.263
					c1.475-1.33,2.918-2.594,4.337-3.737c0.707-0.576,1.395-1.137,2.059-1.679c0.676-0.527,1.33-1.036,1.96-1.526
					c1.256-0.978,2.442-1.841,3.49-2.603c1.059-0.754,1.989-1.403,2.771-1.922c1.558-1.04,2.494-1.584,2.492-1.586l0.262,0.286
					c-0.002,0-0.636,0.88-1.824,2.325c-0.594,0.728-1.329,1.59-2.183,2.569c-0.864,0.97-1.838,2.064-2.935,3.218
					c-0.549,0.578-1.119,1.181-1.712,1.803c-0.605,0.608-1.228,1.236-1.874,1.882c-1.274,1.302-2.677,2.612-4.146,3.951
					c-1.48,1.318-3.055,2.64-4.671,3.961c-1.603,1.334-3.231,2.691-4.859,4.047c-3.237,2.737-6.472,5.476-9.506,8.041
					c-3.023,2.578-5.885,4.939-8.334,6.969c-4.885,4.07-8.178,6.745-8.176,6.745L360.428,377.472z"/>
				<path style="fill:#10BEC4;" d="M332.502,377.758c0,0-3.293-2.675-8.177-6.745c-2.45-2.029-5.309-4.391-8.335-6.969
					c-3.033-2.565-6.269-5.304-9.503-8.041c-1.631-1.355-3.259-2.713-4.861-4.047c-1.617-1.321-3.19-2.643-4.672-3.961
					c-1.469-1.339-2.87-2.649-4.145-3.951c-0.646-0.646-1.27-1.273-1.874-1.882c-0.592-0.622-1.162-1.225-1.713-1.803
					c-1.096-1.154-2.069-2.248-2.932-3.218c-0.856-0.979-1.592-1.842-2.185-2.569c-1.188-1.445-1.822-2.325-1.822-2.325l0.259-0.286
					c-0.002,0.002,0.935,0.546,2.492,1.586c0.781,0.518,1.713,1.168,2.771,1.922c1.051,0.763,2.235,1.625,3.49,2.603
					c0.63,0.49,1.285,0.999,1.963,1.526c0.664,0.542,1.35,1.103,2.056,1.679c1.419,1.144,2.863,2.407,4.338,3.737
					c1.461,1.347,2.93,2.782,4.4,4.263c1.487,1.463,2.997,2.951,4.508,4.438c3.041,2.951,6.082,5.902,8.934,8.671
					c2.86,2.755,5.493,5.37,7.755,7.608c4.528,4.462,7.513,7.479,7.513,7.477L332.502,377.758z"/>
				<path style="fill:#10BEC4;" d="M339.045,373.932c0,0-1.68-3.896-4.12-9.768c-1.229-2.934-2.668-6.353-4.152-10.037
					c-1.5-3.681-3.099-7.607-4.696-11.529c-0.815-1.958-1.63-3.915-2.431-5.842c-0.82-1.92-1.603-3.817-2.306-5.676
					c-0.68-1.864-1.311-3.677-1.842-5.422c-0.268-0.87-0.531-1.717-0.787-2.536c-0.236-0.826-0.463-1.622-0.682-2.391
					c-0.438-1.53-0.791-2.951-1.105-4.21c-0.306-1.264-0.559-2.369-0.747-3.287c-0.382-1.834-0.535-2.907-0.535-2.907l0.36-0.132
					c0,0,0.578,0.915,1.475,2.561c0.453,0.82,0.978,1.826,1.563,2.985c0.578,1.164,1.229,2.476,1.888,3.927
					c0.332,0.724,0.676,1.479,1.031,2.26c0.338,0.789,0.686,1.604,1.044,2.442c0.726,1.67,1.421,3.46,2.11,5.322
					c0.672,1.869,1.306,3.822,1.926,5.815c0.638,1.986,1.286,4.005,1.936,6.022c1.326,4.026,2.653,8.051,3.897,11.823
					c1.257,3.769,2.379,7.306,3.344,10.337c1.945,6.054,3.193,10.108,3.193,10.108L339.045,373.932z"/>
				<path style="fill:#10BEC4;" d="M353.267,373.799c0,0,1.246-4.055,3.192-10.108c0.966-3.031,2.085-6.568,3.345-10.337
					c1.242-3.772,2.569-7.797,3.896-11.823c0.651-2.018,1.298-4.036,1.936-6.022c0.62-1.993,1.254-3.946,1.926-5.815
					c0.69-1.862,1.384-3.652,2.109-5.322c0.359-0.839,0.709-1.653,1.045-2.442c0.358-0.781,0.701-1.536,1.031-2.26
					c0.658-1.451,1.31-2.763,1.887-3.927c0.586-1.159,1.112-2.165,1.564-2.985c0.897-1.645,1.475-2.561,1.475-2.561l0.36,0.132
					c0,0-0.151,1.073-0.535,2.907c-0.189,0.918-0.442,2.023-0.745,3.287c-0.316,1.259-0.67,2.68-1.108,4.21
					c-0.219,0.769-0.445,1.564-0.682,2.391c-0.253,0.819-0.516,1.666-0.787,2.536c-0.527,1.745-1.159,3.558-1.841,5.422
					c-0.701,1.858-1.484,3.756-2.306,5.676c-0.801,1.927-1.615,3.884-2.429,5.842c-1.6,3.923-3.199,7.849-4.696,11.529
					c-1.486,3.684-2.926,7.103-4.153,10.037c-2.441,5.872-4.122,9.768-4.122,9.768L353.267,373.799z"/>
				<path style="fill:#10BEC4;" d="M346.627,372.09c0,0-0.233-4.233-0.493-10.588c-0.143-3.178-0.314-6.884-0.432-10.854
					c-0.137-3.973-0.282-8.208-0.427-12.445c-0.088-2.116-0.177-4.233-0.265-6.318c-0.105-2.085-0.186-4.138-0.202-6.123
					c0.004-1.985,0.039-3.905,0.143-5.726c0.048-0.909,0.094-1.795,0.138-2.651c0.065-0.855,0.127-1.684,0.186-2.477
					c0.117-1.59,0.276-3.045,0.417-4.337c0.147-1.288,0.294-2.415,0.436-3.341c0.272-1.854,0.499-2.912,0.499-2.912h0.384
					c0,0,0.227,1.058,0.5,2.912c0.142,0.926,0.288,2.053,0.436,3.341c0.14,1.292,0.3,2.747,0.417,4.337
					c0.059,0.793,0.12,1.621,0.186,2.477c0.044,0.856,0.091,1.742,0.137,2.651c0.105,1.82,0.14,3.74,0.144,5.726
					c-0.017,1.985-0.096,4.038-0.201,6.123c-0.089,2.085-0.177,4.202-0.265,6.318c-0.145,4.237-0.29,8.473-0.425,12.445
					c-0.123,3.97-0.292,7.676-0.434,10.854c-0.264,6.354-0.494,10.588-0.494,10.588H346.627z"/>
				<path style="fill:#10BEC4;" d="M361.505,383.595c0,0,4.235-0.232,10.589-0.494c3.177-0.142,6.883-0.311,10.854-0.432
					c3.971-0.137,8.206-0.282,12.441-0.425c2.118-0.09,4.237-0.178,6.322-0.265c2.085-0.107,4.136-0.186,6.121-0.203
					c1.985,0.004,3.905,0.038,5.726,0.143c0.91,0.048,1.795,0.093,2.651,0.139c0.856,0.064,1.684,0.125,2.478,0.186
					c1.588,0.117,3.045,0.275,4.333,0.415c1.292,0.148,2.417,0.294,3.343,0.435c1.854,0.273,2.913,0.5,2.913,0.5v0.386
					c0,0-1.059,0.225-2.913,0.497c-0.926,0.142-2.051,0.288-3.343,0.438c-1.288,0.139-2.745,0.298-4.333,0.415
					c-0.795,0.059-1.622,0.123-2.478,0.186c-0.857,0.044-1.741,0.09-2.651,0.136c-1.82,0.105-3.74,0.141-5.726,0.145
					c-1.985-0.018-4.036-0.097-6.121-0.202c-2.085-0.088-4.204-0.177-6.322-0.265c-4.235-0.145-8.471-0.29-12.441-0.425
					c-3.972-0.12-7.678-0.291-10.854-0.432c-6.354-0.265-10.589-0.493-10.589-0.493V383.595z"/>
				<path style="fill:#10BEC4;" d="M330.874,383.98c0-0.002-4.235,0.23-10.591,0.495c-3.177,0.139-6.883,0.31-10.853,0.43
					c-3.973,0.135-8.208,0.28-12.443,0.425c-2.118,0.088-4.237,0.177-6.322,0.265c-2.083,0.105-4.136,0.185-6.121,0.202
					c-1.985-0.004-3.905-0.037-5.724-0.145c-0.91-0.046-1.797-0.094-2.653-0.136c-0.857-0.064-1.684-0.127-2.477-0.186
					c-1.59-0.117-3.045-0.276-4.335-0.415c-1.29-0.149-2.417-0.296-3.343-0.438c-1.853-0.272-2.913-0.497-2.913-0.497v-0.386
					c0,0,1.061-0.227,2.913-0.5c0.926-0.142,2.053-0.285,3.343-0.438c1.29-0.138,2.745-0.296,4.335-0.413
					c0.793-0.061,1.62-0.122,2.477-0.186c0.856-0.044,1.743-0.091,2.653-0.139c1.818-0.105,3.738-0.14,5.724-0.143
					c1.985,0.017,4.038,0.096,6.121,0.203c2.085,0.087,4.204,0.175,6.322,0.265c4.235,0.143,8.471,0.288,12.443,0.425
					c3.97,0.121,7.676,0.29,10.853,0.43c6.355,0.264,10.591,0.498,10.591,0.496V383.98z"/>
			</g>
		</g>
		<path style="fill:#FFD552;" d="M316.496,419.881c2.155-3.486,13.322-19.635,13.322-19.635s-9.373,17.258-11.529,20.743
			c-2.158,3.488-3.832,6.288-4.815,5.679C312.492,426.064,314.34,423.37,316.496,419.881z"/>
		<path style="fill:#FFD552;" d="M334.714,429.715c0.96-3.985,6.524-22.814,6.524-22.814s-3.514,19.322-4.476,23.309
			c-0.958,3.985-1.677,7.169-2.798,6.898C332.84,436.836,333.756,433.703,334.714,429.715z"/>
		<path style="fill:#FFD552;" d="M376.828,419.644c-2.31-3.391-14.177-19.031-14.177-19.031s10.125,16.829,12.434,20.216
			c2.308,3.391,4.104,6.113,5.059,5.462C381.1,425.641,379.136,423.03,376.828,419.644z"/>
		<path style="fill:#FFD552;" d="M358.339,429.715c-0.96-3.985-6.524-22.814-6.524-22.814s3.516,19.322,4.472,23.309
			c0.962,3.985,1.681,7.169,2.802,6.898C360.211,436.836,359.299,433.703,358.339,429.715z"/>
		<path style="fill:#FFD552;" d="M316.496,348.025c2.155,3.486,13.322,19.638,13.322,19.638s-9.373-17.259-11.529-20.745
			c-2.158-3.489-3.832-6.288-4.815-5.682C312.492,341.846,314.34,344.537,316.496,348.025z"/>
		<path style="fill:#FFD552;" d="M334.714,338.191c0.96,3.986,6.524,22.814,6.524,22.814s-3.514-19.322-4.476-23.308
			c-0.958-3.986-1.677-7.169-2.798-6.898C332.84,331.07,333.756,334.204,334.714,338.191z"/>
		<path style="fill:#FFD552;" d="M377.953,348.482c-2.417,3.312-14.784,18.561-14.784,18.561s10.662-16.491,13.079-19.803
			c2.419-3.311,4.303-5.975,5.235-5.295C382.417,342.627,380.37,345.171,377.953,348.482z"/>
		<path style="fill:#FFD552;" d="M358.339,338.191c-0.96,3.986-6.524,22.814-6.524,22.814s3.516-19.322,4.472-23.308
			c0.962-3.986,1.681-7.169,2.802-6.898C360.211,331.07,359.299,334.204,358.339,338.191z"/>
		<path style="fill:#FFD552;" d="M297.82,396.316c3.936-1.147,23.043-5.662,23.043-5.662s-18.52,6.541-22.455,7.686
			c-3.937,1.144-7.057,2.102-7.377,0.994C290.707,398.225,293.881,397.46,297.82,396.316z"/>
		<path style="fill:#FFD552;" d="M396.513,397.839c-3.846-1.419-22.588-7.266-22.588-7.266s18.013,7.826,21.86,9.243
			c3.846,1.418,6.891,2.594,7.29,1.509C403.475,400.242,400.362,399.259,396.513,397.839z"/>
		<path style="fill:#FFD552;" d="M297.82,369.961c3.936,1.146,23.043,5.662,23.043,5.662s-18.52-6.543-22.455-7.688
			c-3.937-1.145-7.057-2.102-7.377-0.993C290.707,368.051,293.881,368.813,297.82,369.961z"/>
		<path style="fill:#FFD552;" d="M396.513,368.436c-3.846,1.419-22.588,7.265-22.588,7.265s18.013-7.823,21.86-9.244
			c3.846-1.417,6.891-2.59,7.29-1.507C403.475,366.032,400.362,367.018,396.513,368.436z"/>
		<path style="fill:#FF4A2C;" d="M417.788,362.16c0,1.668-1.352,3.023-3.022,3.023c-1.67,0-3.025-1.355-3.025-3.023
			c0-1.672,1.355-3.025,3.025-3.025C416.436,359.135,417.788,360.488,417.788,362.16z"/>
		<path style="fill:#FF4A2C;" d="M280.406,362.16c0,1.668-1.352,3.023-3.021,3.023c-1.673,0-3.026-1.355-3.026-3.023
			c0-1.672,1.353-3.025,3.026-3.025C279.055,359.135,280.406,360.488,280.406,362.16z"/>
		<path style="fill:#FF4A2C;" d="M390.963,436.416c0-1.669-1.354-3.024-3.022-3.024c-1.672,0-3.025,1.355-3.025,3.024
			c0,1.672,1.354,3.025,3.025,3.025C389.609,439.441,390.963,438.088,390.963,436.416z"/>
		<path style="fill:#FF4A2C;" d="M308.96,436.416c0-1.669-1.354-3.024-3.025-3.024c-1.67,0-3.025,1.355-3.025,3.024
			c0,1.672,1.355,3.025,3.025,3.025C307.606,439.441,308.96,438.088,308.96,436.416z"/>
		<path style="fill:#FF4A2C;" d="M334.576,447.365c0-1.668-1.353-3.023-3.024-3.023c-1.67,0-3.023,1.355-3.023,3.023
			c0,1.672,1.354,3.025,3.023,3.025C333.224,450.391,334.576,449.037,334.576,447.365z"/>
		<path style="fill:#FF4A2C;" d="M363.451,447.89c0-1.669-1.354-3.024-3.023-3.024c-1.67,0-3.025,1.355-3.025,3.024
			c0,1.672,1.355,3.025,3.025,3.025C362.098,450.915,363.451,449.561,363.451,447.89z"/>
		<path style="fill:#FF4A2C;" d="M390.963,326.334c0,1.67-1.354,3.023-3.022,3.023c-1.672,0-3.025-1.353-3.025-3.023
			c0-1.672,1.354-3.027,3.025-3.027C389.609,323.307,390.963,324.662,390.963,326.334z"/>
		<path style="fill:#FF4A2C;" d="M308.96,326.334c0,1.67-1.354,3.023-3.025,3.023c-1.67,0-3.025-1.353-3.025-3.023
			c0-1.672,1.355-3.027,3.025-3.027C307.606,323.307,308.96,324.662,308.96,326.334z"/>
		<path style="fill:#FF4A2C;" d="M334.576,315.383c0,1.67-1.353,3.023-3.024,3.023c-1.67,0-3.023-1.354-3.023-3.023
			c0-1.671,1.354-3.026,3.023-3.026C333.224,312.356,334.576,313.712,334.576,315.383z"/>
		<path style="fill:#FF4A2C;" d="M363.451,314.858c0,1.671-1.354,3.026-3.023,3.026c-1.67,0-3.025-1.355-3.025-3.026
			c0-1.67,1.355-3.023,3.025-3.023C362.098,311.835,363.451,313.189,363.451,314.858z"/>
		<path style="fill:#FF4A2C;" d="M419.499,404.1c0,1.67-1.353,3.023-3.022,3.023c-1.67,0-3.025-1.353-3.025-3.023
			c0-1.671,1.355-3.026,3.025-3.026C418.146,401.073,419.499,402.429,419.499,404.1z"/>
		<path style="fill:#FF4A2C;" d="M282.117,404.1c0,1.67-1.353,3.023-3.024,3.023c-1.67,0-3.023-1.353-3.023-3.023
			c0-1.671,1.354-3.026,3.023-3.026C280.764,401.073,282.117,402.429,282.117,404.1z"/>
		<path style="opacity:0.6;fill:#FBDD7F;" d="M391.198,384.531c0,24.51-19.869,44.38-44.379,44.38c-24.51,0-44.38-19.87-44.38-44.38
			c0-24.51,19.87-44.38,44.38-44.38C371.329,340.151,391.198,360.022,391.198,384.531z"/>
	</g>
	<g>
		<path style="opacity:0.4;fill:#FFD552;" d="M143.323,373.276c0,19.803-16.052,35.855-35.856,35.855
			c-19.802,0-35.855-16.053-35.855-35.855c0-19.804,16.054-35.857,35.855-35.857C127.271,337.42,143.323,353.473,143.323,373.276z"
			/>
		<g>
			<polygon style="fill:#FFD552;" points="145.81,373.272 117.312,376.457 138.497,395.783 113.564,381.602 119.36,409.69 
				107.532,383.557 95.702,409.69 101.499,381.602 76.566,395.781 97.751,376.455 69.253,373.272 97.752,370.092 76.57,350.764 
				101.5,364.949 95.705,336.861 107.532,362.995 119.36,336.862 113.564,364.949 138.494,350.764 117.313,370.093 			"/>
		</g>
		<path style="fill:#FFD552;" d="M67.057,404.233c0-1.764-1.429-3.19-3.192-3.19c-1.764,0-3.192,1.427-3.192,3.19
			c0,1.763,1.428,3.191,3.192,3.191C65.628,407.425,67.057,405.996,67.057,404.233z"/>
		<path style="fill:#FFD552;" d="M95.104,423.345c0-1.763-1.428-3.192-3.192-3.192c-1.762,0-3.191,1.43-3.191,3.192
			c0,1.761,1.43,3.191,3.191,3.191C93.676,426.536,95.104,425.105,95.104,423.345z"/>
		<path style="fill:#FFD552;" d="M128.411,423.613c0-1.762-1.428-3.192-3.19-3.192c-1.763,0-3.193,1.431-3.193,3.192
			c0,1.763,1.43,3.191,3.193,3.191C126.983,426.805,128.411,425.376,128.411,423.613z"/>
		<path style="fill:#FFD552;" d="M154.363,401.043c0-1.763-1.429-3.193-3.192-3.193c-1.762,0-3.192,1.431-3.192,3.193
			s1.43,3.19,3.192,3.19C152.935,404.233,154.363,402.806,154.363,401.043z"/>
		<path style="fill:#FFD552;" d="M67.057,340.096c0,1.763-1.429,3.191-3.192,3.191c-1.764,0-3.192-1.429-3.192-3.191
			c0-1.764,1.428-3.192,3.192-3.192C65.628,336.903,67.057,338.332,67.057,340.096z"/>
		<path style="fill:#FFD552;" d="M95.104,320.985c0,1.762-1.428,3.19-3.192,3.19c-1.762,0-3.191-1.429-3.191-3.19
			c0-1.765,1.43-3.193,3.191-3.193C93.676,317.792,95.104,319.221,95.104,320.985z"/>
		<path style="fill:#FFD552;" d="M128.411,320.716c0,1.763-1.428,3.19-3.19,3.19c-1.763,0-3.193-1.427-3.193-3.19
			c0-1.764,1.43-3.192,3.193-3.192C126.983,317.523,128.411,318.952,128.411,320.716z"/>
		<path style="fill:#FFD552;" d="M154.363,343.287c0,1.763-1.429,3.191-3.192,3.191c-1.762,0-3.192-1.429-3.192-3.191
			s1.43-3.193,3.192-3.193C152.935,340.094,154.363,341.524,154.363,343.287z"/>
		<path style="fill:#FFD552;" d="M162.936,373.272c0,1.767-1.428,3.193-3.191,3.193c-1.762,0-3.193-1.427-3.193-3.193
			c0-1.761,1.431-3.188,3.193-3.188C161.507,370.084,162.936,371.512,162.936,373.272z"/>
		<path style="fill:#FFD552;" d="M56.277,373.274c0,1.765-1.427,3.191-3.19,3.191c-1.763,0-3.193-1.427-3.193-3.191
			c0-1.763,1.431-3.19,3.193-3.19C54.85,370.084,56.277,371.512,56.277,373.274z"/>
		<g>
			<line style="fill:#FF4A2C;" x1="120.895" y1="377.901" x2="166.054" y2="393.052"/>
			<path style="fill:#FF4A2C;" d="M120.926,377.807c0,0,2.854,0.852,7.136,2.13c4.288,1.258,9.972,3.037,15.667,4.781
				c2.846,0.878,5.713,1.692,8.368,2.553c2.645,0.892,5.082,1.817,7.156,2.655c4.152,1.663,6.833,3.031,6.833,3.031l-0.063,0.19
				c0,0-2.964-0.525-7.279-1.703c-2.16-0.582-4.662-1.313-7.31-2.197c-2.637-0.915-5.415-1.995-8.214-3.011
				c-5.595-2.043-11.201-4.052-15.38-5.635c-4.186-1.563-6.977-2.604-6.977-2.604L120.926,377.807z"/>
		</g>
		<g>
			<line style="fill:#FF4A2C;" x1="115.933" y1="384.211" x2="138.519" y2="426.148"/>
			<path style="fill:#FF4A2C;" d="M116.021,384.163c0,0,1.5,2.574,3.749,6.435c2.269,3.851,5.199,9.035,8.16,14.203
				c1.476,2.586,3.011,5.141,4.359,7.584c1.32,2.46,2.465,4.802,3.404,6.832c1.893,4.053,2.913,6.884,2.913,6.884l-0.176,0.096
				c-0.001,0-1.803-2.411-4.145-6.222c-1.178-1.901-2.504-4.147-3.83-6.602c-1.298-2.471-2.586-5.158-3.934-7.814
				c-2.685-5.316-5.401-10.616-7.368-14.629c-1.985-4.003-3.309-6.671-3.309-6.671L116.021,384.163z"/>
		</g>
		<g>
			<line style="fill:#FF4A2C;" x1="95.052" y1="377.901" x2="49.894" y2="393.052"/>
			<path style="fill:#FF4A2C;" d="M95.084,377.996c0,0-2.79,1.042-6.977,2.604c-4.179,1.583-9.785,3.592-15.38,5.635
				c-2.799,1.016-5.577,2.096-8.214,3.011c-2.647,0.884-5.149,1.615-7.309,2.197c-4.315,1.178-7.279,1.703-7.279,1.703l-0.063-0.19
				c0,0,2.681-1.368,6.833-3.031c2.074-0.838,4.511-1.764,7.156-2.655c2.655-0.86,5.522-1.675,8.368-2.553
				c5.695-1.744,11.378-3.523,15.666-4.781c4.281-1.278,7.136-2.13,7.136-2.13L95.084,377.996z"/>
		</g>
		<g>
			<line style="fill:#FF4A2C;" x1="100.014" y1="384.211" x2="77.428" y2="426.148"/>
			<path style="fill:#FF4A2C;" d="M100.102,384.259c0,0-1.323,2.668-3.309,6.671c-1.967,4.013-4.683,9.313-7.368,14.629
				c-1.348,2.656-2.636,5.344-3.934,7.814c-1.327,2.455-2.652,4.7-3.83,6.602c-2.342,3.811-4.145,6.222-4.146,6.222l-0.176-0.096
				c0,0,1.02-2.831,2.913-6.884c0.939-2.03,2.085-4.372,3.404-6.832c1.349-2.443,2.884-4.998,4.359-7.584
				c2.961-5.168,5.892-10.353,8.16-14.203c2.249-3.86,3.749-6.435,3.749-6.435L100.102,384.259z"/>
		</g>
		<g>
			<line style="fill:#FF4A2C;" x1="107.596" y1="385.974" x2="107.468" y2="433.603"/>
			<path style="fill:#FF4A2C;" d="M107.696,385.974c0,0,0.092,2.978,0.23,7.443c0.159,4.466,0.265,10.42,0.406,16.374
				c0.065,2.977,0.197,5.954,0.218,8.745c-0.011,2.791-0.121,5.396-0.262,7.627c-0.268,4.465-0.719,7.44-0.719,7.44h-0.201
				c-0.001,0-0.437-2.978-0.68-7.444c-0.129-2.233-0.225-4.838-0.222-7.629c0.037-2.791,0.185-5.768,0.266-8.744
				c0.173-5.953,0.311-11.906,0.494-16.371c0.162-4.465,0.27-7.441,0.27-7.441H107.696z"/>
		</g>
		<g>
			<line style="fill:#FF4A2C;" x1="120.895" y1="368.79" x2="166.054" y2="353.638"/>
			<path style="fill:#FF4A2C;" d="M120.863,368.695c0,0,2.79-1.042,6.977-2.605c4.179-1.583,9.785-3.593,15.38-5.636
				c2.799-1.016,5.577-2.096,8.214-3.011c2.648-0.884,5.15-1.615,7.31-2.197c4.315-1.179,7.279-1.704,7.279-1.704l0.063,0.189
				c0,0-2.681,1.368-6.833,3.031c-2.074,0.838-4.511,1.765-7.155,2.656c-2.655,0.86-5.522,1.675-8.368,2.553
				c-5.695,1.745-11.378,3.523-15.667,4.781c-4.281,1.278-7.136,2.131-7.136,2.131L120.863,368.695z"/>
		</g>
		<g>
			<line style="fill:#FF4A2C;" x1="115.933" y1="362.48" x2="138.519" y2="320.545"/>
			<path style="fill:#FF4A2C;" d="M115.845,362.433c0,0,1.323-2.668,3.309-6.671c1.967-4.013,4.683-9.311,7.368-14.628
				c1.348-2.656,2.636-5.344,3.934-7.814c1.327-2.455,2.652-4.699,3.83-6.602c2.342-3.81,4.145-6.221,4.145-6.221l0.176,0.096
				c0.001,0-1.02,2.831-2.913,6.884c-0.939,2.03-2.084,4.372-3.404,6.831c-1.349,2.443-2.884,4.998-4.359,7.584
				c-2.961,5.168-5.892,10.353-8.16,14.202c-2.249,3.86-3.749,6.434-3.749,6.434L115.845,362.433z"/>
		</g>
		<g>
			<line style="fill:#FF4A2C;" x1="95.052" y1="368.79" x2="49.894" y2="353.638"/>
			<path style="fill:#FF4A2C;" d="M95.021,368.885c0,0-2.854-0.853-7.136-2.131c-4.288-1.258-9.971-3.036-15.666-4.781
				c-2.846-0.878-5.713-1.692-8.368-2.553c-2.645-0.892-5.082-1.818-7.156-2.656c-4.152-1.663-6.833-3.031-6.833-3.031l0.063-0.189
				c0,0,2.964,0.525,7.279,1.704c2.16,0.582,4.662,1.313,7.309,2.197c2.637,0.915,5.414,1.995,8.214,3.011
				c5.595,2.043,11.201,4.053,15.38,5.636c4.186,1.563,6.977,2.605,6.977,2.605L95.021,368.885z"/>
		</g>
		<g>
			<line style="fill:#FF4A2C;" x1="100.014" y1="362.48" x2="77.428" y2="320.545"/>
			<path style="fill:#FF4A2C;" d="M99.926,362.528c0,0-1.5-2.574-3.749-6.434c-2.269-3.85-5.199-9.034-8.16-14.202
				c-1.476-2.586-3.011-5.141-4.359-7.584c-1.32-2.459-2.465-4.801-3.404-6.831c-1.893-4.053-2.913-6.884-2.913-6.884l0.176-0.096
				c0.001,0,1.803,2.411,4.146,6.221c1.178,1.902,2.503,4.146,3.83,6.602c1.298,2.471,2.586,5.158,3.934,7.814
				c2.685,5.316,5.401,10.615,7.368,14.628c1.985,4.003,3.309,6.671,3.309,6.671L99.926,362.528z"/>
		</g>
		<g>
			<line style="fill:#FF4A2C;" x1="107.596" y1="360.718" x2="107.468" y2="313.086"/>
			<path style="fill:#FF4A2C;" d="M107.496,360.718c0,0-0.108-2.977-0.27-7.441c-0.183-4.465-0.321-10.419-0.494-16.372
				c-0.081-2.978-0.229-5.954-0.266-8.744c-0.003-2.791,0.092-5.396,0.222-7.63c0.243-4.466,0.679-7.444,0.68-7.444h0.2
				c0,0,0.452,2.976,0.72,7.44c0.141,2.232,0.251,4.837,0.262,7.628c-0.021,2.791-0.153,5.769-0.218,8.745
				c-0.141,5.955-0.246,11.909-0.406,16.375c-0.138,4.466-0.23,7.443-0.23,7.443H107.496z"/>
		</g>
		<path style="opacity:0.3;fill:#FF4A2C;" d="M136.668,373.276c0,16.126-13.073,29.2-29.201,29.2c-16.127,0-29.2-13.074-29.2-29.2
			c0-16.127,13.073-29.202,29.2-29.202C123.595,344.074,136.668,357.149,136.668,373.276z"/>
	</g>
	<g>
		<polygon style="fill:#541137;" points="50.253,442.084 36.766,440.847 38.001,454.335 39.238,440.847 25.75,442.084 
			39.238,443.32 38.001,429.832 36.766,443.32 		"/>
	</g>
	<g>
		<polygon style="fill:#10BEC4;" points="271.339,92.399 262.92,93.41 261.91,101.829 260.897,93.41 252.479,92.399 260.896,91.389 
			261.91,82.969 262.921,91.389 		"/>
	</g>
	<g>
		<polygon style="fill:#10BEC4;" points="66.006,293.772 57.587,294.782 56.576,303.201 55.564,294.782 47.146,293.772 
			55.564,292.761 56.576,284.342 57.587,292.761 		"/>
	</g>
	<g>
		<polygon style="fill:#FFD552;" points="485.367,27.056 464.177,25.102 466.128,46.294 468.082,25.103 446.892,27.056 
			468.082,29.01 466.128,7.818 464.177,29.01 		"/>
	</g>
	<g>
		<polygon style="fill:#FF4A2C;" points="477.948,401.02 469.528,402.03 468.519,410.449 467.506,402.03 459.087,401.02 
			467.506,400.009 468.519,391.59 469.528,400.009 		"/>
	</g>
	<polygon style="fill:#FFD552;" points="429.279,276.27 431.239,280.244 435.624,280.881 432.45,283.975 433.201,288.342 
		429.279,286.28 425.354,288.342 426.105,283.975 422.932,280.881 427.316,280.244 	"/>
	<polygon style="fill:#FFD552;" points="322.487,175.151 324.84,179.919 330.104,180.685 326.295,184.396 327.193,189.637 
		322.487,187.163 317.78,189.637 318.679,184.396 314.871,180.685 320.134,179.919 	"/>
	<polygon style="fill:#10BEC4;" points="451.957,326.052 454.31,330.821 459.573,331.585 455.765,335.298 456.663,340.54 
		451.957,338.065 447.249,340.54 448.148,335.298 444.341,331.585 449.603,330.821 	"/>
	<polygon style="fill:#541137;" points="32.783,62.362 35.844,68.571 42.698,69.565 37.739,74.398 38.908,81.222 32.783,78 
		26.654,81.222 27.824,74.398 22.867,69.565 29.718,68.571 	"/>
	<polygon style="fill:#FF4A2C;" points="161.544,184.383 163.137,187.614 166.704,188.132 164.123,190.646 164.732,194.197 
		161.544,192.521 158.354,194.197 158.963,190.646 156.385,188.132 159.95,187.614 	"/>
	<polygon style="fill:#FF4A2C;" points="337.164,18.393 339.648,23.432 345.212,24.24 341.186,28.162 342.137,33.7 337.164,31.085 
		332.191,33.7 333.14,28.162 329.117,24.24 334.678,23.432 	"/>
	<polygon style="fill:#10BEC4;" points="476.25,91.069 477.649,93.908 480.783,94.363 478.516,96.571 479.052,99.691 476.25,98.218 
		473.449,99.691 473.982,96.571 471.717,94.363 474.849,93.908 	"/>
	<polygon style="fill:#FF4A2C;" points="213.309,368.415 214.502,370.834 217.173,371.223 215.241,373.105 215.696,375.765 
		213.309,374.509 210.921,375.765 211.377,373.105 209.445,371.223 212.115,370.834 	"/>
	<polygon style="fill:#FFD552;" points="442.703,442.953 445.057,447.721 450.319,448.486 446.512,452.197 447.411,457.44 
		442.703,454.965 437.997,457.44 438.895,452.197 435.087,448.486 440.352,447.721 	"/>
	<polygon style="fill:#541137;" points="169.421,8.928 170.821,11.766 173.954,12.221 171.686,14.43 172.221,17.549 169.421,16.077 
		166.62,17.549 167.154,14.43 164.888,12.221 168.02,11.766 	"/>
	<polygon style="fill:#FFD552;" points="460.9,150.618 462.129,153.105 464.875,153.504 462.888,155.441 463.355,158.175 
		460.9,156.884 458.444,158.175 458.915,155.441 456.928,153.504 459.674,153.105 	"/>
	<polygon style="fill:#541137;" points="246.93,422.013 249.284,426.779 254.547,427.544 250.739,431.257 251.638,436.498 
		246.93,434.023 242.224,436.498 243.122,431.257 239.314,427.544 244.578,426.779 	"/>
	<g>
		<polygon style="fill:#10BEC4;" points="208.84,327.866 200.421,328.878 199.411,337.296 198.4,328.878 189.981,327.866 
			198.4,326.854 199.411,318.436 200.421,326.854 		"/>
	</g>
	<g>
		<polygon style="fill:#FF4A2C;" points="51.74,140.57 30.791,138.032 33.329,158.981 35.867,138.032 14.918,140.57 35.867,143.108 
			33.329,122.159 30.791,143.107 		"/>
	</g>
	<g>
		<path style="fill:#FF4A2C;" d="M273.535,186.501c-4.066-3.295-22.7-20.038-22.7-20.038s20.329,14.654,24.393,17.946
			c4.065,3.295,7.336,5.868,6.408,7.012C280.71,192.565,277.6,189.795,273.535,186.501z"/>
		<path style="fill:#FF4A2C;" d="M219.744,186.501c4.066-3.295,22.699-20.038,22.699-20.038s-20.328,14.654-24.394,17.946
			c-4.065,3.295-7.336,5.868-6.409,7.012C212.568,192.565,215.678,189.795,219.744,186.501z"/>
		<path style="fill:#FF4A2C;" d="M245.168,199.525c0.031-5.231,1.467-30.243,1.467-30.243s1.256,25.027,1.223,30.26
			c-0.031,5.232,0.004,9.393-1.471,9.384C244.914,208.917,245.135,204.757,245.168,199.525z"/>
		<path style="fill:#FF4A2C;" d="M273.535,140.791c-4.066,3.294-22.7,20.038-22.7,20.038s20.329-14.652,24.393-17.947
			c4.065-3.293,7.336-5.865,6.408-7.011C280.71,134.726,277.6,137.498,273.535,140.791z"/>
		<path style="fill:#FF4A2C;" d="M219.744,140.791c4.066,3.294,22.699,20.038,22.699,20.038s-20.328-14.652-24.394-17.947
			c-4.065-3.293-7.336-5.865-6.409-7.011C212.568,134.726,215.678,137.498,219.744,140.791z"/>
		<path style="fill:#FF4A2C;" d="M245.168,128.86c0.031,5.232,1.467,30.243,1.467,30.243s1.256-25.027,1.223-30.259
			c-0.031-5.232,0.004-9.394-1.471-9.385C244.914,119.468,245.135,123.628,245.168,128.86z"/>
		<path style="fill:#FFD552;" d="M280.293,165.148c-5.229-0.033-30.241-1.468-30.241-1.468s25.026-1.256,30.259-1.223
			c5.232,0.032,9.395-0.002,9.385,1.471C289.685,165.402,285.525,165.18,280.293,165.148z"/>
		<path style="fill:#FFD552;" d="M211.72,165.148c5.231-0.033,30.242-1.468,30.242-1.468s-25.025-1.256-30.259-1.223
			c-5.232,0.032-9.394-0.002-9.384,1.471C202.327,165.402,206.488,165.18,211.72,165.148z"/>
		<path style="fill:#FFD552;" d="M232.232,197.59c2.277-4.71,12.018-27.791,12.018-27.791s-12.163,21.908-14.441,26.619
			c-2.277,4.711-4.143,8.431-2.817,9.072C228.318,206.132,229.954,202.299,232.232,197.59z"/>
		<path style="fill:#FFD552;" d="M260.977,197.59c-2.277-4.71-12.02-27.791-12.02-27.791s12.165,21.908,14.442,26.619
			c2.277,4.711,4.144,8.431,2.818,9.072C264.89,206.132,263.256,202.299,260.977,197.59z"/>
		<path style="fill:#FFD552;" d="M232.232,130.765c2.277,4.71,12.018,27.792,12.018,27.792s-12.163-21.909-14.441-26.619
			c-2.277-4.711-4.143-8.431-2.817-9.072C228.318,122.224,229.954,126.055,232.232,130.765z"/>
		<path style="fill:#FFD552;" d="M260.977,130.765c-2.277,4.71-12.02,27.792-12.02,27.792s12.165-21.909,14.442-26.619
			c2.277-4.711,4.144-8.431,2.818-9.072C264.89,122.224,263.256,126.055,260.977,130.765z"/>
		<path style="fill:#10BEC4;" d="M282.259,149.495c0,1.086-0.689,1.968-1.541,1.968c-0.853,0-1.544-0.882-1.544-1.968
			c0-1.087,0.691-1.969,1.544-1.969C281.57,147.526,282.259,148.408,282.259,149.495z"/>
		<path style="fill:#10BEC4;" d="M212.167,149.495c0,1.086-0.691,1.968-1.544,1.968c-0.852,0-1.543-0.882-1.543-1.968
			c0-1.087,0.692-1.969,1.543-1.969C211.476,147.526,212.167,148.408,212.167,149.495z"/>
		<path style="fill:#10BEC4;" d="M271.417,197.656c0-1.087-0.69-1.969-1.541-1.969c-0.853,0-1.544,0.882-1.544,1.969
			c0,1.087,0.691,1.969,1.544,1.969C270.727,199.625,271.417,198.744,271.417,197.656z"/>
		<path style="fill:#10BEC4;" d="M225.144,196.847c0-1.086-0.691-1.968-1.543-1.968c-0.853,0-1.544,0.881-1.544,1.968
			c0,1.087,0.692,1.968,1.544,1.968C224.453,198.815,225.144,197.934,225.144,196.847z"/>
		<path style="fill:#10BEC4;" d="M239.804,204.947c0-1.087-0.69-1.968-1.543-1.968c-0.852,0-1.543,0.881-1.543,1.968
			c0,1.088,0.692,1.97,1.543,1.97C239.113,206.917,239.804,206.036,239.804,204.947z"/>
		<path style="fill:#10BEC4;" d="M256.078,205.288c0-1.086-0.689-1.967-1.541-1.967c-0.854,0-1.544,0.88-1.544,1.967
			c0,1.088,0.69,1.97,1.544,1.97C255.389,207.258,256.078,206.376,256.078,205.288z"/>
		<path style="fill:#10BEC4;" d="M272.959,130.117c0,1.087-0.69,1.968-1.54,1.968c-0.852,0-1.545-0.881-1.545-1.968
			c0-1.088,0.692-1.97,1.545-1.97C272.27,128.148,272.959,129.029,272.959,130.117z"/>
		<path style="fill:#10BEC4;" d="M223.6,128.149c0,1.087-0.69,1.968-1.542,1.968c-0.852,0-1.545-0.881-1.545-1.968
			c0-1.089,0.692-1.97,1.545-1.97C222.91,126.179,223.6,127.06,223.6,128.149z"/>
		<path style="fill:#10BEC4;" d="M238.26,119.053c0,1.086-0.689,1.968-1.542,1.968c-0.853,0-1.545-0.881-1.545-1.968
			c0-1.088,0.692-1.97,1.545-1.97C237.571,117.084,238.26,117.965,238.26,119.053z"/>
		<path style="fill:#10BEC4;" d="M256.078,118.711c0,1.087-0.689,1.969-1.541,1.969c-0.854,0-1.544-0.882-1.544-1.969
			c0-1.087,0.69-1.968,1.544-1.968C255.389,116.743,256.078,117.624,256.078,118.711z"/>
		<path style="fill:#10BEC4;" d="M283.133,176.789c0,1.088-0.691,1.968-1.544,1.968c-0.853,0-1.543-0.88-1.543-1.968
			c0-1.086,0.69-1.969,1.543-1.969C282.441,174.82,283.133,175.703,283.133,176.789z"/>
		<path style="fill:#10BEC4;" d="M213.039,176.789c0,1.088-0.689,1.968-1.542,1.968c-0.852,0-1.544-0.88-1.544-1.968
			c0-1.086,0.691-1.969,1.544-1.969C212.349,174.82,213.039,175.703,213.039,176.789z"/>
		<g>
			<polygon style="fill:#10BEC4;" points="274.902,154.975 248.252,163.845 274.674,173.369 247.894,164.876 263.689,188.104 
				247.019,165.49 246.133,193.57 245.949,165.481 228.722,187.674 245.068,164.833 218.092,172.658 244.744,163.792 
				218.323,154.263 245.101,162.762 229.311,139.528 245.979,162.145 246.864,134.065 247.048,162.155 264.271,139.959 
				247.928,162.802 			"/>
		</g>
		<path style="opacity:0.3;fill:#FF9C31;" d="M277.064,163.818c0,16.464-13.347,29.811-29.814,29.811
			c-16.464,0-29.813-13.347-29.813-29.811c0-16.465,13.349-29.812,29.813-29.812C263.717,134.006,277.064,147.353,277.064,163.818z"
			/>
	</g>
	<g>
		
			<text transform="matrix(1 0 0 1 102.3867 295.9023)" style="fill:#541137; font-family:'OpenSans'; font-size:19.6602px; letter-spacing:4;">Fireworks Background</text>
	</g>
</g>
<g id="DESIGNED_BY_FREEPIK">
	<g id="XMLID_76_">
		<g id="XMLID_929_">
			<path id="XMLID_958_" style="fill:#3F3F3F;" d="M181.087,466.631c-0.246,0-0.435,0.084-0.567,0.255
				c-0.133,0.169-0.199,0.421-0.199,0.753v2.393c-0.304-0.332-0.617-0.579-0.937-0.739c-0.321-0.159-0.715-0.24-1.182-0.24
				c-0.807,0-1.458,0.283-1.953,0.849c-0.494,0.565-0.742,1.355-0.742,2.369c0,0.478,0.063,0.923,0.188,1.335
				c0.124,0.412,0.307,0.77,0.549,1.074c0.241,0.304,0.526,0.539,0.857,0.703c0.33,0.164,0.689,0.246,1.078,0.246
				c0.293,0,0.563-0.04,0.809-0.122c0.247-0.081,0.477-0.199,0.689-0.356c0.212-0.155,0.427-0.359,0.644-0.607v0.16
				c0,0.297,0.072,0.525,0.217,0.686c0.145,0.16,0.328,0.24,0.549,0.24c0.226,0,0.409-0.077,0.552-0.231
				c0.143-0.154,0.213-0.386,0.213-0.694v-7.146c0-0.306-0.066-0.534-0.199-0.69C181.521,466.709,181.332,466.631,181.087,466.631z
				 M180.021,473.471c-0.141,0.307-0.329,0.534-0.564,0.682c-0.236,0.149-0.496,0.224-0.781,0.224c-0.281,0-0.54-0.078-0.778-0.236
				c-0.237-0.154-0.424-0.387-0.561-0.696c-0.136-0.309-0.205-0.682-0.205-1.121c0-0.416,0.064-0.78,0.193-1.096
				c0.128-0.314,0.31-0.556,0.543-0.724c0.233-0.168,0.499-0.253,0.795-0.253c0.285,0,0.547,0.083,0.787,0.246
				c0.239,0.165,0.429,0.402,0.569,0.713c0.141,0.31,0.21,0.682,0.21,1.113C180.232,472.78,180.163,473.164,180.021,473.471z"/>
			<path id="XMLID_954_" style="fill:#3F3F3F;" d="M188.452,472.551c0.233-0.122,0.35-0.385,0.35-0.793
				c0-0.439-0.113-0.87-0.338-1.294c-0.225-0.423-0.564-0.769-1.019-1.035c-0.453-0.268-0.996-0.4-1.628-0.4
				c-0.487,0-0.93,0.078-1.33,0.234c-0.4,0.156-0.737,0.381-1.009,0.674c-0.273,0.293-0.48,0.644-0.623,1.054
				c-0.143,0.408-0.214,0.853-0.214,1.332c0,1.017,0.289,1.822,0.867,2.415c0.577,0.593,1.387,0.891,2.427,0.891
				c0.456,0,0.858-0.06,1.207-0.179c0.352-0.119,0.641-0.268,0.874-0.447c0.231-0.181,0.404-0.368,0.519-0.565
				c0.115-0.196,0.172-0.366,0.172-0.514c0-0.166-0.052-0.294-0.155-0.386c-0.103-0.09-0.237-0.137-0.403-0.137
				c-0.154,0-0.273,0.036-0.356,0.107c-0.202,0.189-0.366,0.34-0.492,0.451c-0.126,0.111-0.265,0.216-0.415,0.312
				c-0.15,0.098-0.305,0.168-0.466,0.215c-0.16,0.044-0.337,0.066-0.531,0.066c-0.289,0-0.553-0.069-0.792-0.213
				c-0.239-0.142-0.432-0.354-0.576-0.635c-0.145-0.281-0.219-0.605-0.222-0.974h3.168
				C187.89,472.731,188.219,472.671,188.452,472.551z M184.297,471.813c0.056-0.547,0.212-0.96,0.472-1.238
				c0.259-0.28,0.59-0.418,0.994-0.418c0.423,0,0.764,0.137,1.024,0.411c0.259,0.275,0.409,0.689,0.448,1.245H184.297z"/>
			<path id="XMLID_952_" style="fill:#3F3F3F;" d="M193.878,472.114c-0.319-0.17-0.729-0.316-1.231-0.439
				c-0.424-0.104-0.756-0.19-0.997-0.262c-0.242-0.069-0.434-0.16-0.576-0.27c-0.143-0.108-0.213-0.247-0.213-0.418
				c0-0.186,0.097-0.342,0.291-0.466c0.194-0.125,0.437-0.187,0.73-0.187c0.286,0,0.511,0.047,0.677,0.142
				c0.166,0.096,0.31,0.223,0.433,0.38c0.151,0.19,0.284,0.332,0.401,0.427c0.116,0.096,0.258,0.143,0.424,0.143
				c0.23,0,0.408-0.061,0.532-0.178c0.124-0.119,0.186-0.272,0.186-0.457c0-0.171-0.058-0.345-0.175-0.523
				c-0.116-0.178-0.286-0.34-0.51-0.485c-0.223-0.147-0.502-0.265-0.837-0.351c-0.333-0.088-0.71-0.131-1.13-0.131
				c-0.535,0-0.99,0.085-1.367,0.259c-0.378,0.172-0.665,0.402-0.858,0.69c-0.194,0.289-0.291,0.597-0.291,0.92
				c0,0.364,0.105,0.671,0.315,0.921c0.21,0.249,0.489,0.45,0.84,0.602c0.35,0.152,0.804,0.298,1.362,0.436
				c0.494,0.119,0.849,0.244,1.065,0.375c0.216,0.131,0.323,0.338,0.323,0.622c0,0.187-0.104,0.352-0.311,0.497
				c-0.208,0.144-0.474,0.216-0.798,0.216c-0.4,0-0.715-0.071-0.947-0.213c-0.232-0.144-0.431-0.357-0.597-0.647
				c-0.082-0.149-0.169-0.267-0.261-0.351c-0.091-0.082-0.221-0.124-0.39-0.124c-0.194,0-0.355,0.064-0.481,0.19
				c-0.128,0.126-0.19,0.277-0.19,0.456c0,0.27,0.099,0.537,0.296,0.805c0.198,0.267,0.505,0.489,0.92,0.667
				c0.415,0.179,0.914,0.267,1.495,0.267c0.609,0,1.127-0.082,1.552-0.246c0.425-0.164,0.747-0.405,0.964-0.725
				c0.218-0.318,0.327-0.701,0.327-1.148c0-0.297-0.082-0.561-0.246-0.792C194.438,472.485,194.197,472.283,193.878,472.114z"/>
			<path id="XMLID_950_" style="fill:#3F3F3F;" d="M196.486,469.04c-0.238,0-0.431,0.081-0.579,0.243
				c-0.149,0.162-0.222,0.404-0.222,0.724v4.636c0,0.316,0.073,0.559,0.222,0.73c0.148,0.17,0.341,0.255,0.579,0.255
				c0.238,0,0.433-0.083,0.588-0.249c0.154-0.166,0.232-0.412,0.232-0.736v-4.683c0-0.289-0.078-0.515-0.232-0.677
				C196.919,469.121,196.724,469.04,196.486,469.04z"/>
			<path id="XMLID_949_" style="fill:#3F3F3F;" d="M196.504,466.701c-0.217,0-0.409,0.073-0.573,0.223
				c-0.165,0.149-0.246,0.337-0.246,0.567c0,0.254,0.08,0.449,0.24,0.587c0.16,0.139,0.353,0.209,0.579,0.209
				c0.217,0,0.405-0.071,0.564-0.212c0.158-0.14,0.238-0.335,0.238-0.584c0-0.258-0.081-0.453-0.244-0.588
				C196.9,466.769,196.714,466.701,196.504,466.701z"/>
			<path id="XMLID_945_" style="fill:#3F3F3F;" d="M203.626,469.04c-0.217,0-0.396,0.077-0.535,0.232
				c-0.139,0.154-0.208,0.372-0.208,0.652v0.221c-0.289-0.376-0.602-0.652-0.938-0.829c-0.336-0.175-0.734-0.264-1.193-0.264
				c-0.384,0-0.736,0.068-1.056,0.204c-0.321,0.137-0.604,0.34-0.849,0.608c-0.245,0.269-0.433,0.6-0.566,0.992
				c-0.133,0.391-0.199,0.83-0.199,1.317c0,0.653,0.108,1.228,0.327,1.727c0.217,0.499,0.529,0.887,0.934,1.163
				c0.406,0.277,0.88,0.416,1.422,0.416c0.45,0,0.84-0.091,1.166-0.272c0.327-0.182,0.615-0.447,0.864-0.797
				c-0.008,0.531-0.02,0.916-0.036,1.155c-0.016,0.24-0.07,0.465-0.164,0.673c-0.093,0.21-0.255,0.374-0.486,0.49
				c-0.231,0.117-0.557,0.175-0.977,0.175c-0.205,0-0.387-0.018-0.545-0.056c-0.159-0.038-0.294-0.095-0.406-0.172
				c-0.112-0.078-0.216-0.17-0.309-0.279c-0.093-0.108-0.183-0.217-0.27-0.324c-0.178-0.209-0.386-0.314-0.624-0.314
				c-0.189,0-0.352,0.062-0.486,0.187c-0.135,0.124-0.202,0.285-0.202,0.483c0,0.262,0.119,0.516,0.357,0.763
				c0.238,0.248,0.576,0.449,1.014,0.605c0.439,0.156,0.938,0.234,1.496,0.234c0.609,0,1.119-0.061,1.528-0.184
				c0.409-0.122,0.741-0.312,0.994-0.563c0.253-0.254,0.438-0.574,0.551-0.961c0.115-0.39,0.173-0.852,0.173-1.39v-4.706
				c0-0.384-0.051-0.679-0.155-0.882C204.146,469.143,203.938,469.04,203.626,469.04z M202.6,473.405
				c-0.151,0.29-0.346,0.508-0.586,0.653c-0.239,0.143-0.493,0.217-0.762,0.217c-0.455,0-0.826-0.168-1.113-0.505
				c-0.287-0.337-0.43-0.834-0.43-1.49c0-0.648,0.139-1.149,0.418-1.501c0.279-0.352,0.649-0.529,1.113-0.529
				c0.475,0,0.857,0.185,1.148,0.554c0.291,0.367,0.436,0.882,0.436,1.542C202.825,472.762,202.749,473.114,202.6,473.405z"/>
			<path id="XMLID_944_" style="fill:#3F3F3F;" d="M210.978,470.107c-0.165-0.339-0.417-0.602-0.753-0.788
				c-0.337-0.186-0.718-0.279-1.146-0.279c-0.44,0-0.828,0.088-1.166,0.264c-0.339,0.177-0.651,0.452-0.935,0.828v-0.195
				c0-0.194-0.034-0.358-0.104-0.493c-0.07-0.134-0.162-0.234-0.276-0.303c-0.115-0.067-0.244-0.101-0.387-0.101
				c-0.233,0-0.417,0.076-0.552,0.228c-0.134,0.153-0.201,0.384-0.201,0.692v4.683c0,0.316,0.076,0.559,0.226,0.73
				c0.15,0.17,0.342,0.255,0.576,0.255c0.241,0,0.438-0.082,0.59-0.246c0.152-0.164,0.228-0.411,0.228-0.739v-2.03
				c0-0.66,0.04-1.111,0.119-1.353c0.11-0.3,0.284-0.537,0.522-0.71c0.237-0.173,0.5-0.258,0.788-0.258
				c0.444,0,0.74,0.142,0.888,0.425c0.148,0.282,0.223,0.691,0.223,1.226v2.7c0,0.316,0.074,0.559,0.226,0.73
				c0.15,0.17,0.346,0.255,0.587,0.255c0.238,0,0.431-0.083,0.579-0.249c0.148-0.166,0.223-0.412,0.223-0.736v-3.016
				c0-0.357-0.017-0.648-0.048-0.878C211.155,470.521,211.085,470.306,210.978,470.107z"/>
			<path id="XMLID_939_" style="fill:#3F3F3F;" d="M217.821,472.551c0.233-0.122,0.35-0.385,0.35-0.793
				c0-0.439-0.113-0.87-0.338-1.294c-0.226-0.423-0.565-0.769-1.019-1.035c-0.453-0.268-0.996-0.4-1.628-0.4
				c-0.487,0-0.93,0.078-1.33,0.234c-0.399,0.156-0.736,0.381-1.009,0.674c-0.274,0.293-0.481,0.644-0.624,1.054
				c-0.142,0.408-0.213,0.853-0.213,1.332c0,1.017,0.289,1.822,0.866,2.415c0.578,0.593,1.387,0.891,2.428,0.891
				c0.455,0,0.858-0.06,1.208-0.179c0.351-0.119,0.64-0.268,0.872-0.447c0.232-0.181,0.405-0.368,0.52-0.565
				s0.172-0.366,0.172-0.514c0-0.166-0.051-0.294-0.154-0.386c-0.103-0.09-0.238-0.137-0.404-0.137
				c-0.154,0-0.273,0.036-0.357,0.107c-0.201,0.189-0.366,0.34-0.492,0.451c-0.128,0.111-0.266,0.216-0.415,0.312
				c-0.151,0.098-0.307,0.168-0.466,0.215c-0.161,0.044-0.338,0.066-0.532,0.066c-0.288,0-0.553-0.069-0.792-0.213
				c-0.239-0.142-0.431-0.354-0.576-0.635c-0.145-0.281-0.218-0.605-0.223-0.974h3.169
				C217.26,472.731,217.588,472.671,217.821,472.551z M213.666,471.813c0.056-0.547,0.212-0.96,0.471-1.238
				c0.259-0.28,0.591-0.418,0.995-0.418c0.424,0,0.765,0.137,1.024,0.411c0.259,0.275,0.409,0.689,0.448,1.245H213.666z"/>
			<path id="XMLID_936_" style="fill:#3F3F3F;" d="M224.206,466.631c-0.245,0-0.434,0.084-0.567,0.255
				c-0.132,0.169-0.199,0.421-0.199,0.753v2.393c-0.304-0.332-0.617-0.579-0.938-0.739c-0.32-0.159-0.714-0.24-1.181-0.24
				c-0.808,0-1.458,0.283-1.953,0.849c-0.495,0.565-0.741,1.355-0.741,2.369c0,0.478,0.062,0.923,0.187,1.335
				c0.124,0.412,0.308,0.77,0.549,1.074c0.241,0.304,0.527,0.539,0.857,0.703c0.33,0.164,0.689,0.246,1.077,0.246
				c0.293,0,0.563-0.04,0.811-0.122c0.247-0.081,0.476-0.199,0.688-0.356c0.211-0.155,0.426-0.359,0.644-0.607v0.16
				c0,0.297,0.072,0.525,0.217,0.686c0.145,0.16,0.328,0.24,0.549,0.24c0.226,0,0.41-0.077,0.552-0.231
				c0.143-0.154,0.213-0.386,0.213-0.694v-7.146c0-0.306-0.065-0.534-0.199-0.69C224.641,466.709,224.452,466.631,224.206,466.631z
				 M223.141,473.471c-0.14,0.307-0.328,0.534-0.564,0.682c-0.235,0.149-0.495,0.224-0.781,0.224c-0.281,0-0.54-0.078-0.776-0.236
				c-0.238-0.154-0.425-0.387-0.562-0.696c-0.137-0.309-0.205-0.682-0.205-1.121c0-0.416,0.064-0.78,0.193-1.096
				c0.129-0.314,0.31-0.556,0.543-0.724c0.233-0.168,0.5-0.253,0.795-0.253c0.285,0,0.547,0.083,0.787,0.246
				c0.239,0.165,0.43,0.402,0.57,0.713c0.141,0.31,0.21,0.682,0.21,1.113C223.352,472.78,223.282,473.164,223.141,473.471z"/>
			<path id="XMLID_933_" style="fill:#3F3F3F;" d="M233.586,469.434c-0.406-0.254-0.877-0.382-1.415-0.382
				c-0.467,0-0.859,0.084-1.175,0.252c-0.317,0.168-0.627,0.411-0.932,0.728v-2.476c0-0.297-0.068-0.524-0.202-0.686
				c-0.135-0.159-0.326-0.239-0.576-0.239c-0.237,0-0.423,0.084-0.555,0.252c-0.133,0.168-0.198,0.416-0.198,0.744v7.075
				c0,0.305,0.068,0.535,0.205,0.692c0.136,0.156,0.319,0.233,0.549,0.233c0.226,0,0.412-0.077,0.558-0.233
				c0.146-0.157,0.22-0.388,0.22-0.692v-0.16c0.178,0.204,0.322,0.36,0.43,0.463c0.109,0.102,0.241,0.203,0.395,0.3
				c0.154,0.098,0.341,0.175,0.561,0.234c0.22,0.06,0.454,0.089,0.704,0.089c0.407,0,0.781-0.082,1.119-0.246
				c0.338-0.164,0.626-0.397,0.864-0.698c0.237-0.3,0.418-0.656,0.543-1.064c0.124-0.41,0.187-0.859,0.187-1.35
				c0-0.666-0.112-1.241-0.336-1.725C234.305,470.06,233.991,469.69,233.586,469.434z M232.796,473.845
				c-0.295,0.354-0.646,0.531-1.053,0.531c-0.479,0-0.866-0.174-1.161-0.521c-0.295-0.346-0.442-0.841-0.442-1.486
				c0-0.439,0.069-0.818,0.208-1.137c0.139-0.318,0.328-0.561,0.57-0.729c0.24-0.168,0.516-0.253,0.825-0.253
				c0.3,0,0.564,0.085,0.79,0.253c0.225,0.168,0.399,0.406,0.521,0.715c0.123,0.309,0.184,0.677,0.184,1.104
				C233.238,472.983,233.09,473.49,232.796,473.845z"/>
			<path id="XMLID_931_" style="fill:#3F3F3F;" d="M240.529,469.138c-0.112-0.065-0.23-0.098-0.353-0.098
				c-0.171,0-0.302,0.029-0.395,0.089c-0.093,0.059-0.181,0.174-0.264,0.344c-0.083,0.171-0.176,0.406-0.279,0.706l-1.3,3.71
				l-1.372-3.988c-0.091-0.277-0.195-0.489-0.314-0.638c-0.119-0.148-0.295-0.223-0.528-0.223c-0.135,0-0.265,0.035-0.389,0.107
				c-0.124,0.07-0.222,0.166-0.294,0.284c-0.071,0.118-0.107,0.247-0.107,0.386c0,0.13,0.062,0.341,0.185,0.628l1.994,5.021
				l-0.148,0.363c-0.111,0.265-0.209,0.465-0.294,0.601c-0.085,0.138-0.181,0.234-0.288,0.289c-0.106,0.056-0.254,0.083-0.44,0.083
				c-0.074,0-0.163-0.012-0.266-0.035c-0.083-0.024-0.168-0.036-0.256-0.036c-0.221,0-0.388,0.051-0.5,0.151
				c-0.113,0.101-0.169,0.245-0.169,0.431c0,0.272,0.119,0.461,0.356,0.564c0.237,0.103,0.593,0.153,1.068,0.153
				c0.487,0,0.873-0.073,1.161-0.223c0.287-0.147,0.517-0.361,0.691-0.638c0.174-0.277,0.353-0.659,0.535-1.146l2.113-5.531
				c0.051-0.143,0.095-0.283,0.13-0.421c0.037-0.14,0.061-0.246,0.078-0.321c0-0.123-0.032-0.239-0.093-0.35
				C240.729,469.291,240.642,469.203,240.529,469.138z"/>
		</g>
		<g id="XMLID_365_">
			<g id="XMLID_380_">
				<path id="XMLID_928_" style="fill:#3F3F3F;" d="M262.93,466.626c-0.533,0-0.954,0.068-1.26,0.204
					c-0.308,0.137-0.527,0.353-0.654,0.652c-0.13,0.301-0.191,0.702-0.191,1.211v0.486h-0.387c-0.543,0-0.815,0.192-0.815,0.582
					c0,0.175,0.066,0.316,0.196,0.424c0.132,0.111,0.315,0.164,0.559,0.164h0.446v4.293c0,0.319,0.074,0.563,0.228,0.73
					c0.154,0.17,0.344,0.254,0.573,0.254c0.243,0,0.439-0.084,0.589-0.254c0.155-0.168,0.23-0.411,0.23-0.73v-4.293h0.395
					c0.291,0,0.517-0.036,0.681-0.107c0.166-0.071,0.245-0.24,0.245-0.503c0-0.374-0.307-0.56-0.926-0.56h-0.395v-0.386
					c0-0.321,0.043-0.567,0.122-0.739c0.087-0.172,0.273-0.26,0.565-0.26c0.107,0,0.241,0.014,0.39,0.034
					c0.155,0.026,0.268,0.038,0.33,0.038c0.134,0,0.252-0.055,0.348-0.16c0.101-0.107,0.15-0.235,0.15-0.385
					C264.35,466.855,263.879,466.626,262.93,466.626z"/>
				<path id="XMLID_926_" style="fill:#3F3F3F;" d="M268.089,469.292c-0.32-0.171-0.647-0.256-0.99-0.256
					c-0.342,0-0.61,0.085-0.818,0.256c-0.202,0.171-0.4,0.421-0.593,0.755c-0.014-0.334-0.08-0.584-0.198-0.755
					c-0.119-0.171-0.313-0.256-0.583-0.256c-0.525,0-0.788,0.364-0.788,1.094v4.513c0,0.323,0.078,0.569,0.226,0.733
					c0.149,0.169,0.34,0.251,0.579,0.251c0.236,0,0.432-0.081,0.586-0.247c0.15-0.163,0.233-0.41,0.233-0.737v-1.355
					c0-0.486,0.014-0.899,0.045-1.238c0.033-0.337,0.089-0.631,0.17-0.878c0.084-0.243,0.201-0.426,0.353-0.554
					c0.149-0.122,0.345-0.186,0.582-0.186c0.172,0,0.374,0.036,0.602,0.107c0.227,0.073,0.371,0.112,0.433,0.112
					c0.158,0,0.305-0.063,0.441-0.194c0.135-0.126,0.204-0.292,0.204-0.488C268.571,469.69,268.411,469.463,268.089,469.292z"/>
				<path id="XMLID_922_" style="fill:#3F3F3F;" d="M274.176,472.549c0.232-0.122,0.351-0.386,0.351-0.791
					c0-0.44-0.112-0.87-0.339-1.296c-0.222-0.423-0.565-0.77-1.018-1.033c-0.453-0.271-0.997-0.403-1.629-0.403
					c-0.488,0-0.931,0.078-1.329,0.232c-0.401,0.156-0.735,0.381-1.008,0.675c-0.276,0.295-0.484,0.644-0.624,1.055
					c-0.145,0.41-0.218,0.854-0.218,1.333c0,1.017,0.292,1.823,0.87,2.418c0.576,0.593,1.385,0.889,2.429,0.889
					c0.453,0,0.857-0.061,1.207-0.179c0.349-0.117,0.64-0.269,0.874-0.446c0.232-0.183,0.404-0.368,0.522-0.567
					c0.111-0.194,0.167-0.365,0.167-0.512c0-0.167-0.048-0.294-0.152-0.386c-0.104-0.093-0.237-0.139-0.405-0.139
					c-0.152,0-0.271,0.038-0.355,0.108c-0.202,0.189-0.367,0.34-0.493,0.449c-0.128,0.113-0.264,0.217-0.415,0.313
					c-0.15,0.097-0.308,0.17-0.466,0.213c-0.16,0.048-0.336,0.069-0.531,0.069c-0.29,0-0.552-0.07-0.792-0.212
					c-0.241-0.145-0.432-0.356-0.578-0.636c-0.145-0.28-0.216-0.606-0.222-0.974h3.171
					C273.615,472.73,273.942,472.67,274.176,472.549z M270.021,471.809c0.055-0.545,0.213-0.956,0.472-1.236
					c0.26-0.279,0.592-0.417,0.995-0.417c0.426,0,0.764,0.136,1.024,0.412c0.261,0.273,0.407,0.688,0.446,1.241H270.021z"/>
				<path id="XMLID_919_" style="fill:#3F3F3F;" d="M280.916,472.549c0.232-0.122,0.352-0.386,0.352-0.791
					c0-0.44-0.116-0.87-0.341-1.296c-0.223-0.423-0.564-0.77-1.013-1.033c-0.46-0.271-1.003-0.403-1.634-0.403
					c-0.486,0-0.932,0.078-1.33,0.232c-0.4,0.156-0.736,0.381-1.009,0.675c-0.273,0.295-0.48,0.644-0.622,1.055
					c-0.145,0.41-0.217,0.854-0.217,1.333c0,1.017,0.29,1.823,0.867,2.418c0.58,0.593,1.387,0.889,2.43,0.889
					c0.453,0,0.859-0.061,1.208-0.179c0.347-0.117,0.641-0.269,0.872-0.446c0.234-0.183,0.408-0.368,0.518-0.567
					c0.116-0.194,0.171-0.365,0.171-0.512c0-0.167-0.047-0.294-0.15-0.386c-0.104-0.093-0.238-0.139-0.406-0.139
					c-0.151,0-0.271,0.038-0.355,0.108c-0.202,0.189-0.367,0.34-0.492,0.449c-0.128,0.113-0.264,0.217-0.415,0.313
					c-0.152,0.097-0.307,0.17-0.469,0.213c-0.157,0.048-0.335,0.069-0.527,0.069c-0.291,0-0.556-0.07-0.795-0.212
					c-0.238-0.145-0.431-0.356-0.575-0.636c-0.144-0.28-0.218-0.606-0.222-0.974h3.17
					C280.354,472.73,280.682,472.67,280.916,472.549z M276.762,471.809c0.053-0.545,0.211-0.956,0.47-1.236
					c0.26-0.279,0.592-0.417,0.995-0.417c0.425,0,0.764,0.136,1.026,0.412c0.257,0.273,0.407,0.688,0.446,1.241H276.762z"/>
				<path id="XMLID_390_" style="fill:#3F3F3F;" d="M286.927,469.434c-0.42-0.256-0.883-0.386-1.38-0.386
					c-0.414,0-0.789,0.09-1.113,0.267c-0.331,0.177-0.648,0.453-0.952,0.828v-0.195c0-0.296-0.071-0.519-0.218-0.677
					c-0.144-0.156-0.329-0.234-0.561-0.234c-0.232,0-0.418,0.078-0.553,0.228c-0.133,0.154-0.2,0.382-0.2,0.691v6.995
					c0,0.354,0.052,0.619,0.146,0.807c0.102,0.183,0.301,0.274,0.606,0.274c0.518,0,0.778-0.359,0.778-1.068v-2.434
					c0.286,0.358,0.586,0.635,0.9,0.816c0.313,0.188,0.704,0.28,1.165,0.28c0.386,0,0.742-0.076,1.08-0.228
					c0.334-0.152,0.622-0.372,0.868-0.653c0.245-0.283,0.44-0.632,0.58-1.05c0.14-0.419,0.21-0.878,0.21-1.376
					c0-0.677-0.122-1.261-0.366-1.758C287.675,470.068,287.346,469.692,286.927,469.434z M286.45,473.438
					c-0.137,0.311-0.32,0.546-0.552,0.704c-0.23,0.153-0.48,0.232-0.748,0.232c-0.454,0-0.828-0.179-1.133-0.536
					c-0.307-0.358-0.459-0.863-0.459-1.504c0-0.687,0.154-1.204,0.461-1.559c0.307-0.35,0.685-0.526,1.131-0.526
					c0.281,0,0.54,0.083,0.77,0.247c0.229,0.163,0.411,0.397,0.542,0.705c0.13,0.306,0.196,0.674,0.196,1.101
					C286.658,472.745,286.588,473.123,286.45,473.438z"/>
				<path id="XMLID_389_" style="fill:#3F3F3F;" d="M289.9,469.036c-0.238,0-0.428,0.08-0.58,0.245
					c-0.145,0.162-0.222,0.402-0.222,0.722v4.642c0,0.313,0.076,0.555,0.222,0.728c0.152,0.17,0.342,0.254,0.58,0.254
					c0.237,0,0.432-0.082,0.588-0.251c0.154-0.164,0.231-0.41,0.231-0.732v-4.688c0-0.286-0.077-0.513-0.231-0.675
					C290.332,469.116,290.138,469.036,289.9,469.036z"/>
				<path id="XMLID_388_" style="fill:#3F3F3F;" d="M289.917,466.696c-0.217,0-0.407,0.076-0.571,0.223
					c-0.166,0.149-0.247,0.339-0.247,0.568c0,0.253,0.08,0.446,0.242,0.586c0.158,0.138,0.35,0.209,0.576,0.209
					c0.22,0,0.408-0.071,0.566-0.21c0.157-0.14,0.236-0.335,0.236-0.585c0-0.257-0.082-0.454-0.244-0.591
					C290.314,466.764,290.13,466.696,289.917,466.696z"/>
				<path id="XMLID_387_" style="fill:#3F3F3F;" d="M297.258,474.066l-1.662-2.614l0.86-0.788c0.438-0.396,0.659-0.715,0.659-0.951
					c0-0.192-0.068-0.354-0.2-0.483c-0.138-0.128-0.306-0.193-0.509-0.193c-0.169,0-0.313,0.044-0.432,0.131
					c-0.121,0.086-0.29,0.251-0.517,0.486l-1.822,1.913v-3.933c0-0.329-0.074-0.582-0.221-0.751
					c-0.147-0.171-0.344-0.257-0.593-0.257c-0.256,0-0.457,0.093-0.596,0.283c-0.136,0.188-0.207,0.462-0.207,0.82v6.913
					c0,0.323,0.073,0.569,0.215,0.733c0.141,0.169,0.339,0.251,0.588,0.251c0.213,0,0.405-0.084,0.566-0.254
					c0.164-0.168,0.247-0.407,0.247-0.719v-1.29l0.88-0.83l1.428,2.352c0.182,0.278,0.329,0.472,0.436,0.58
					c0.106,0.109,0.261,0.16,0.458,0.16c0.227,0,0.413-0.073,0.554-0.222c0.142-0.151,0.214-0.351,0.214-0.609
					c0-0.089-0.029-0.189-0.082-0.288C297.47,474.406,297.379,474.262,297.258,474.066z"/>
				<path id="XMLID_386_" style="fill:#3F3F3F;" d="M299.449,473.84c-0.25,0-0.458,0.087-0.629,0.261
					c-0.171,0.174-0.257,0.382-0.257,0.623c0,0.286,0.091,0.51,0.268,0.665c0.18,0.159,0.39,0.238,0.634,0.238
					c0.237,0,0.444-0.079,0.624-0.241c0.174-0.157,0.264-0.38,0.264-0.662c0-0.243-0.09-0.454-0.264-0.626
					C299.909,473.927,299.698,473.84,299.449,473.84z"/>
				<path id="XMLID_385_" style="fill:#3F3F3F;" d="M306.835,472.913c-0.166,0-0.308,0.054-0.422,0.156
					c-0.113,0.104-0.219,0.245-0.318,0.427c-0.177,0.31-0.381,0.538-0.616,0.689c-0.23,0.15-0.509,0.225-0.834,0.225
					c-0.24,0-0.463-0.045-0.666-0.141c-0.201-0.094-0.372-0.229-0.516-0.409c-0.144-0.18-0.252-0.398-0.325-0.652
					c-0.075-0.256-0.114-0.537-0.114-0.842c0-0.647,0.146-1.161,0.439-1.533c0.293-0.375,0.682-0.561,1.158-0.561
					c0.333,0,0.606,0.074,0.82,0.226c0.219,0.148,0.424,0.375,0.623,0.674c0.108,0.158,0.209,0.27,0.299,0.339
					c0.09,0.068,0.201,0.104,0.338,0.104c0.202,0,0.377-0.068,0.524-0.203c0.143-0.135,0.214-0.3,0.214-0.491
					c0-0.192-0.062-0.397-0.192-0.617c-0.127-0.218-0.314-0.424-0.556-0.62c-0.245-0.192-0.54-0.353-0.891-0.475
					c-0.353-0.123-0.736-0.184-1.156-0.184c-0.674,0-1.26,0.139-1.747,0.418c-0.485,0.279-0.858,0.674-1.113,1.184
					c-0.259,0.511-0.387,1.098-0.387,1.765c0,0.981,0.281,1.765,0.841,2.35c0.563,0.582,1.345,0.876,2.349,0.876
					c0.469,0,0.894-0.065,1.269-0.192c0.377-0.125,0.688-0.294,0.935-0.502c0.248-0.207,0.434-0.425,0.553-0.656
					c0.122-0.229,0.183-0.445,0.183-0.646c0-0.169-0.067-0.331-0.199-0.482C307.198,472.99,307.033,472.913,306.835,472.913z"/>
				<path id="XMLID_382_" style="fill:#3F3F3F;" d="M313.646,469.949c-0.288-0.29-0.628-0.518-1.026-0.674
					c-0.4-0.161-0.847-0.239-1.336-0.239c-0.482,0-0.924,0.078-1.326,0.234c-0.398,0.158-0.737,0.38-1.02,0.669
					c-0.281,0.288-0.498,0.637-0.649,1.045c-0.146,0.408-0.224,0.857-0.224,1.349c0,0.485,0.076,0.93,0.22,1.332
					c0.151,0.401,0.368,0.75,0.656,1.048c0.285,0.292,0.627,0.521,1.017,0.676c0.393,0.159,0.835,0.239,1.326,0.239
					c0.492,0,0.937-0.08,1.336-0.234c0.394-0.157,0.735-0.382,1.02-0.675c0.286-0.291,0.501-0.642,0.656-1.05
					c0.146-0.408,0.222-0.854,0.222-1.336c0-0.488-0.075-0.932-0.221-1.339C314.148,470.593,313.934,470.246,313.646,469.949z
					 M312.455,473.865c-0.29,0.372-0.682,0.558-1.171,0.558c-0.324,0-0.604-0.086-0.846-0.253c-0.24-0.168-0.424-0.409-0.554-0.728
					c-0.13-0.316-0.193-0.685-0.193-1.108c0-0.429,0.066-0.803,0.197-1.124c0.131-0.321,0.314-0.564,0.556-0.728
					c0.242-0.163,0.521-0.246,0.84-0.246c0.489,0,0.881,0.183,1.171,0.555c0.289,0.368,0.436,0.882,0.436,1.543
					C312.891,472.983,312.744,473.496,312.455,473.865z"/>
				<path id="XMLID_381_" style="fill:#3F3F3F;" d="M323.569,469.31c-0.32-0.172-0.705-0.262-1.146-0.262
					c-0.381,0-0.726,0.081-1.038,0.241c-0.314,0.161-0.607,0.408-0.882,0.738c-0.191-0.326-0.431-0.572-0.725-0.735
					c-0.292-0.162-0.642-0.244-1.048-0.244c-0.395,0-0.748,0.079-1.07,0.241c-0.319,0.156-0.62,0.403-0.903,0.738v-0.153
					c0-0.262-0.073-0.467-0.222-0.616c-0.15-0.145-0.334-0.222-0.557-0.222c-0.226,0-0.412,0.078-0.556,0.239
					c-0.14,0.156-0.21,0.389-0.21,0.694v4.636c0,0.336,0.078,0.592,0.235,0.765c0.156,0.171,0.358,0.258,0.605,0.258
					c0.248,0,0.447-0.087,0.603-0.258c0.149-0.173,0.227-0.429,0.227-0.765v-2.189c0-0.683,0.086-1.206,0.253-1.566
					c0.169-0.369,0.517-0.55,1.048-0.55c0.264,0,0.459,0.071,0.582,0.22c0.121,0.142,0.197,0.33,0.226,0.552
					c0.027,0.226,0.04,0.544,0.04,0.952v2.581c0,0.342,0.078,0.594,0.232,0.767c0.148,0.17,0.35,0.255,0.595,0.255
					c0.254,0,0.454-0.085,0.61-0.255c0.156-0.174,0.23-0.426,0.23-0.767v-2.153c0-0.694,0.063-1.178,0.178-1.452
					c0.109-0.21,0.259-0.384,0.45-0.508c0.192-0.125,0.395-0.191,0.609-0.191c0.264,0,0.463,0.071,0.596,0.215
					c0.128,0.142,0.209,0.318,0.238,0.528c0.029,0.21,0.044,0.486,0.044,0.836v2.726c0,0.336,0.078,0.592,0.234,0.765
					c0.157,0.171,0.356,0.258,0.604,0.258c0.252,0,0.458-0.085,0.611-0.255c0.154-0.174,0.229-0.426,0.229-0.767v-3.163
					c0-0.629-0.068-1.091-0.206-1.386C324.128,469.734,323.889,469.484,323.569,469.31z"/>
			</g>
			<g id="XMLID_366_">
				<path id="XMLID_379_" style="fill:#3F3F3F;" d="M245.273,471.94c-0.001-0.003-0.001-0.006-0.001-0.011
					C245.272,471.935,245.272,471.938,245.273,471.94z"/>
				<path id="XMLID_378_" style="fill:#3F3F3F;" d="M245.355,472.458c0.001,0,0.001,0,0.001,0c-0.03-0.147-0.055-0.294-0.073-0.438
					C245.301,472.166,245.326,472.314,245.355,472.458z"/>
				<path id="XMLID_377_" style="fill:#3F3F3F;" d="M245.892,473.963c-0.004-0.007-0.007-0.014-0.011-0.021
					C245.885,473.949,245.888,473.956,245.892,473.963z"/>
				<path id="XMLID_376_" style="fill:#3F3F3F;" d="M245.84,473.862c-0.014-0.027-0.027-0.056-0.04-0.084
					C245.813,473.808,245.826,473.835,245.84,473.862z"/>
				<path id="XMLID_375_" style="fill:#3F3F3F;" d="M245.506,473.038c0.079,0.25,0.175,0.492,0.285,0.724
					c-0.113-0.236-0.206-0.479-0.284-0.724H245.506z"/>
				<path id="XMLID_374_" style="fill:#3F3F3F;" d="M250.736,465.178l-0.076-0.259c0.299-0.063,0.523-0.329,0.523-0.646
					c0-0.363-0.296-0.659-0.66-0.659c-0.365,0-0.66,0.296-0.66,0.659c0,0.317,0.225,0.583,0.522,0.646l0.084,0.289
					c-1.021,0.141-1.834,0.539-1.834,0.539l0.144,0.44c0.617-0.206,1.153-0.331,1.639-0.383c0.476-0.051,0.834-0.073,1.126-0.073
					c0.314,0,0.545,0.025,0.81,0.069l0.075-0.477C252.43,465.324,251.697,465.1,250.736,465.178z"/>
				<path id="XMLID_373_" style="fill:#3F3F3F;" d="M245.453,467.685c-0.017,0.024-0.497,0.466-0.876,1.28
					c-0.016-0.025-0.035-0.051-0.056-0.074c-0.114-0.124-0.273-0.188-0.474-0.185c-0.003,0-0.006,0-0.01,0
					c-0.125,0-0.21-0.041-0.266-0.092c0.056-0.07,0.089-0.16,0.089-0.258c0-0.23-0.188-0.419-0.419-0.419
					c-0.23,0-0.418,0.189-0.418,0.419c0,0.231,0.188,0.417,0.418,0.417c0.037,0,0.071-0.005,0.105-0.012
					c0.102,0.113,0.266,0.213,0.504,0.208c0.123-0.001,0.214,0.031,0.273,0.098c0.07,0.075,0.093,0.185,0.1,0.267
					c0,0.002,0,0.004-0.002,0.004c-0.272,0.743-0.194,1.668-0.194,1.668l0.661,0.025c0.014-0.336,0.062-0.926,0.232-1.393
					c0.329-0.906,0.741-1.473,0.758-1.496l0.003-0.005c0.024-0.031,0.047-0.061,0.071-0.089l-0.196-0.142L245.453,467.685z"/>
				<path id="XMLID_372_" style="fill:#3F3F3F;" d="M257.294,466.284c-0.23,0-0.419,0.186-0.419,0.417
					c0,0.037,0.006,0.071,0.015,0.103c-0.114,0.105-0.214,0.268-0.21,0.507c0.002,0.123-0.03,0.212-0.097,0.273
					c-0.053,0.047-0.119,0.072-0.185,0.088c-0.492-0.689-1.098-1.109-1.098-1.109l-0.474,0.509c0.358,0.326,0.725,0.733,1.08,1.243
					c0.246,0.352,0.499,0.807,0.71,1.259l0.64-0.304c0,0-0.292-0.722-0.703-1.369c0.071-0.025,0.143-0.064,0.206-0.12
					c0.125-0.113,0.188-0.272,0.184-0.474c-0.001-0.13,0.041-0.218,0.093-0.275c0.071,0.054,0.16,0.089,0.258,0.089
					c0.232,0,0.418-0.188,0.418-0.419C257.712,466.471,257.525,466.284,257.294,466.284z"/>
				<path id="XMLID_371_" style="fill:#3F3F3F;" d="M255.633,472.034c-0.88,0.429-2.33,0.996-4.236,1.262
					c-0.749,0.104-1.475,0.143-2.143,0.143c-0.869,0-1.637-0.065-2.227-0.14c-0.672-0.085-1.198-0.188-1.52-0.261
					c0.078,0.244,0.171,0.487,0.284,0.724c0.002,0.006,0.005,0.013,0.008,0.017c0.013,0.028,0.027,0.057,0.04,0.084
					c0.014,0.027,0.027,0.055,0.041,0.079c0.004,0.008,0.007,0.015,0.011,0.021c0.189,0.356,0.417,0.684,0.675,0.968
					c0.899,0.984,1.816,1.139,1.825,1.141l0.015,0.002l0.013,0.005c0.009,0.003,0.821,0.265,2.057,0.265
					c1.215,0,2.409-0.244,3.545-0.729c0.842-0.431,1.639-1.085,2.033-1.668c0.305-0.452,0.526-0.934,0.656-1.434
					c0.069-0.267,0.124-0.692,0.092-1.141C256.555,471.539,256.163,471.776,255.633,472.034z"/>
				<path id="XMLID_367_" style="fill:#3F3F3F;" d="M252.322,466.152c-0.265-0.044-0.477-0.068-0.777-0.068
					c-0.279,0-0.626,0.022-1.088,0.07c-0.465,0.049-0.982,0.171-1.583,0.373c-0.842,0.282-1.603,0.725-2.204,1.279l-0.02,0.02
					c-0.089,0.081-0.274,0.254-0.488,0.525c-0.025,0.037-0.408,0.578-0.709,1.407c-0.226,0.622-0.216,1.527-0.216,1.537v0.002
					c0,0.212,0.013,0.423,0.036,0.632c0,0.005,0,0.008,0.001,0.011c0.002,0.027,0.007,0.053,0.01,0.08
					c0.018,0.144,0.043,0.291,0.074,0.438c0.438,0.112,3.048,0.721,5.966,0.314c1.828-0.255,3.218-0.795,4.061-1.204
					c0.701-0.34,1.151-0.647,1.325-0.773c-0.174-0.643-0.651-1.65-1.089-2.279C254.367,466.726,253.016,466.267,252.322,466.152z
					 M248.679,471.41c-0.971,0-1.759-0.786-1.759-1.759c0-0.972,0.788-1.76,1.759-1.76c0.973,0,1.761,0.788,1.761,1.76
					C250.439,470.624,249.651,471.41,248.679,471.41z M253.828,470.113c-0.601,0-1.088-0.488-1.088-1.09
					c0-0.602,0.487-1.089,1.088-1.089s1.09,0.487,1.09,1.089C254.918,469.625,254.429,470.113,253.828,470.113z"/>
			</g>
		</g>
	</g>
</g>
</svg>
